<svg t="1605263468113" class="icon" viewBox="0 0 1024 1024" version="1.1" xmlns="http://www.w3.org/2000/svg" p-id="7012"
     width="200" height="200">
    <path d="M853.333333 401.493333V725.333333a213.418667 213.418667 0 0 1-213.333333 213.333334H384a213.418667 213.418667 0 0 1-213.333333-213.333334V298.666667a213.418667 213.418667 0 0 1 213.333333-213.333334h153.173333a214.869333 214.869333 0 0 1 151.04 62.293334l102.826667 103.253333A212.053333 212.053333 0 0 1 853.333333 401.493333z"
          fill="#FFB531" p-id="7013"></path>
    <path d="M726.613333 372.48a32.213333 32.213333 0 0 1-32 32h-43.52a117.546667 117.546667 0 0 1-117.333333-117.333333V243.626667a32 32 0 0 1 64 0v43.52a53.333333 53.333333 0 0 0 53.333333 53.333333h43.52a31.957333 31.957333 0 0 1 32 32zM634.026667 636.16a31.957333 31.957333 0 0 1-32 32H421.546667a32 32 0 0 1 0-64h180.48a31.957333 31.957333 0 0 1 32 32z"
          fill="#030835" p-id="7014"></path>
</svg>
