<svg xmlns="http://www.w3.org/2000/svg" viewBox="0 0 309.3 65">
    <defs>
        <style>.cls-1{fill:url(#未命名漸層_2);}.cls-2{fill:#fff;}</style>
        <linearGradient id="未命名漸層_2" x1="32.5" y1="65" x2="32.5" gradientUnits="userSpaceOnUse">
            <stop offset="0" stop-color="#ff3439"/>
            <stop offset="1" stop-color="#ff4e00"/>
        </linearGradient>
    </defs>
    <g id="图层_2" data-name="图层 2">
        <g id="圖層_1" data-name="圖層 1">
            <path class="cls-1"
                  d="M63.33,6.64a12.62,12.62,0,0,0-1.49-2.12A13,13,0,0,0,52,0H13A13,13,0,0,0,0,13V52A13,13,0,0,0,11.85,64.94C12.23,65,52,65,52,65A13,13,0,0,0,65,52V13A12.91,12.91,0,0,0,63.33,6.64Z"/>
            <path class="cls-2"
                  d="M35.94,25.56,45.36,9.24a.63.63,0,0,0-.08-.76.64.64,0,0,0-.54-.21L27.52,9.78a1.29,1.29,0,0,0-1.15,1l-7,26.18a.66.66,0,0,0,.12.58.67.67,0,0,0,.56.23L28.18,37a.65.65,0,0,1,.55.23.64.64,0,0,1,.13.59l-5,18.75a.63.63,0,0,0,.17.64.66.66,0,0,0,1-.1L46.26,26.76a.64.64,0,0,0,0-.7.65.65,0,0,0-.62-.32l-9.11.8a.64.64,0,0,1-.58-.27A.65.65,0,0,1,35.94,25.56Z"/>
            <path class="cls-2"
                  d="M259.72,16.71H282a.74.74,0,0,0,.72-.61L283.85,9a.51.51,0,0,0-.52-.62H261a.74.74,0,0,0-.71.62L259.2,16.1A.51.51,0,0,0,259.72,16.71Z"/>
            <path class="cls-2"
                  d="M278.26,42.24h-6.81a.77.77,0,0,0-.72.62l-1,6a1.5,1.5,0,0,1-1.44,1.24h-5.57l5.74-20.43h12.67a.74.74,0,0,0,.72-.61L283,22a.51.51,0,0,0-.52-.62H257.75A.74.74,0,0,0,257,22L255.9,29.1a.51.51,0,0,0,.52.61h3.43L254.1,50.14,253,57.26a1,1,0,0,0,1,1.24h16.09a7.53,7.53,0,0,0,7.17-6.19l1.5-9.45A.52.52,0,0,0,278.26,42.24Z"/>
            <path class="cls-2"
                  d="M304,14.55h-4.52c.49-2.47.95-4.94,1.35-7.43a.51.51,0,0,0-.52-.62h-6.81a.77.77,0,0,0-.72.62c-.4,2.49-.86,5-1.36,7.43h-5.37a.76.76,0,0,0-.72.62l-1.12,7.12a.51.51,0,0,0,.52.61h4.8a198.87,198.87,0,0,1-12.25,34.81.53.53,0,0,0,.46.79h7.11a.75.75,0,0,0,.66-.45,207,207,0,0,0,12.1-35.15h2a1,1,0,0,1,1,1.24l-4,25.38a1.5,1.5,0,0,1-1.44,1.24h-4.33a.77.77,0,0,0-.72.62l-1,6.5a.52.52,0,0,0,.52.62h7.43a7.53,7.53,0,0,0,7.17-6.19l4.66-29.41.34-2.16A5.15,5.15,0,0,0,304,14.55Z"/>
            <path class="cls-2"
                  d="M217.62,16.71h32.19a.74.74,0,0,0,.72-.61L251.66,9a.51.51,0,0,0-.52-.62H219a.75.75,0,0,0-.72.62L217.1,16.1A.51.51,0,0,0,217.62,16.71Z"/>
            <path class="cls-2"
                  d="M251.55,21.36H214.41a.76.76,0,0,0-.72.62l-1.12,7.12a.51.51,0,0,0,.52.61h4.1l-3.82,9-1.13,7.12a1,1,0,0,0,1,1.24h26.31a7.55,7.55,0,0,0,7.18-6.19l.34-2.17.64-4a.52.52,0,0,0-.53-.62h-7.11a.75.75,0,0,0-.72.62L239,37.44a1.5,1.5,0,0,1-1.44,1.24H222l3.82-9h24.37a.76.76,0,0,0,.72-.61L252.08,22A.52.52,0,0,0,251.55,21.36Z"/>
            <path class="cls-2"
                  d="M204,16.71h6.79a.74.74,0,0,0,.72-.73l-.32-9a.51.51,0,0,0-.53-.5h-6.79a.74.74,0,0,0-.72.74l.32,9A.51.51,0,0,0,204,16.71Z"/>
            <path class="cls-2"
                  d="M247,50.14H207a1,1,0,0,1-1-1.36q2.44-9.41,4-19.07h0L211.22,22a.51.51,0,0,0-.52-.62h-9.91a.74.74,0,0,0-.71.62L199,29.1a.51.51,0,0,0,.52.61H202a192.91,192.91,0,0,1-4.78,21.81c-1,3.7,1.3,7,5,7h.48a.54.54,0,0,0,.22,0,5.07,5.07,0,0,0,.68,0h42.09a.77.77,0,0,0,.72-.62l1.13-7.12A.52.52,0,0,0,247,50.14Z"/>
            <path class="cls-2"
                  d="M179.86,46.74l5.49-34.67a.52.52,0,0,0-.52-.62H179a.75.75,0,0,0-.72.62l-5.49,34.67a.51.51,0,0,0,.52.62h5.88A.77.77,0,0,0,179.86,46.74Z"/>
            <path class="cls-2"
                  d="M163.31,45.25a45.18,45.18,0,0,0,10.54-16.66.53.53,0,0,0-.5-.73H166.7a.75.75,0,0,0-.67.48C161.42,40,150.3,49,138,50.64a.75.75,0,0,0-.63.61l-1,6.56a.52.52,0,0,0,.59.62,43.25,43.25,0,0,0,20.23-7.93l5.54,7.79a.52.52,0,0,0,.43.21h8.26a.7.7,0,0,0,.63-1Z"/>
            <path class="cls-2"
                  d="M195.83,6.5h-6.5a.75.75,0,0,0-.72.62l-.11.68-.28,1.8-6.38,40.23a1.49,1.49,0,0,1-1.43,1.24h-4a.75.75,0,0,0-.72.62l-1,6.19a.51.51,0,0,0,.52.62H182a7.53,7.53,0,0,0,7.17-6.19l7.16-45.19A.52.52,0,0,0,195.83,6.5Z"/>
            <path class="cls-2"
                  d="M138.81,46.63a34.35,34.35,0,0,0,26.94-24.91.52.52,0,0,0-.51-.67h-6.85a.77.77,0,0,0-.7.55,22.09,22.09,0,0,1-1.15,3.16h-6.32l5.29-7.43h19.41a.76.76,0,0,0,.72-.62l1-6.5a.51.51,0,0,0-.53-.61H164.38l.4-2.48a.52.52,0,0,0-.53-.62h-6.81a.75.75,0,0,0-.71.62l-.39,2.48H144.57a.74.74,0,0,0-.71.61l-1,6.5a.51.51,0,0,0,.52.62h4.12l-5.1,7.15a1.43,1.43,0,0,0-.25.6l-1,6.18a1,1,0,0,0,1,1.24H151a24.09,24.09,0,0,1-11.11,6,.76.76,0,0,0-.57.61L138.19,46A.52.52,0,0,0,138.81,46.63Z"/>
            <path class="cls-2"
                  d="M128.22,40.39a.51.51,0,0,0-.52-.46h-7.39a.74.74,0,0,0-.72.78L121.49,58a.51.51,0,0,0,.52.46h7.39a.74.74,0,0,0,.72-.78Z"/>
            <path class="cls-2"
                  d="M95.14,39.93H87.49a.75.75,0,0,0-.67.46,136.65,136.65,0,0,1-8.61,17.25.53.53,0,0,0,.42.86h8.06a.76.76,0,0,0,.64-.39,144.72,144.72,0,0,0,8.3-17.42A.53.53,0,0,0,95.14,39.93Z"/>
            <path class="cls-2"
                  d="M132.92,28.48H114.81l.41-2.59.31-1.95.31-2a.51.51,0,0,0-.52-.62h-7.43a.76.76,0,0,0-.72.62l-.31,2-.31,1.95-.41,2.59H94.54a1,1,0,0,1-1.05-1.24l.22-1.35L94,23.94l1.24-7.84a1.5,1.5,0,0,1,1.43-1.24h37.15a.75.75,0,0,0,.71-.62l1.13-7.12a.52.52,0,0,0-.52-.62H94.3a7.53,7.53,0,0,0-7.17,6.19l0,.28L84.63,28.48l-.16,1-.18,1.14a5.15,5.15,0,0,0,5.21,6.19h15.32l-2,12.69a1.5,1.5,0,0,1-1.44,1.24H97a.77.77,0,0,0-.72.62l-1,6.5a.52.52,0,0,0,.53.62h9.28a6,6,0,0,0,5.74-5l2.64-16.72h18.11a.75.75,0,0,0,.72-.62l1.13-7.11A.51.51,0,0,0,132.92,28.48Z"/>
        </g>
    </g>
</svg>
