<svg t="1763992849041" class="icon" viewBox="0 0 1024 1024" version="1.1" xmlns="http://www.w3.org/2000/svg" p-id="9755"
     width="200" height="200">
    <path d="M456.03712 572.79744c11.20384-26.92992 33.18784-22.92224 53.30304-23.05792 20.61184-0.14592 41.2288-0.03584 61.84064-0.03584a7795.2896 7795.2896 0 0 0 4.73088-10.7008c-7.64288-4.9152-15.07072-13.6192-22.95936-14.05952-29.92768-1.67936-60.00256-0.67328-91.81696-0.67328v-74.76352h136.47872c1.19552 1.99168 2.39616 3.97184 3.59168 5.96352-10.17984 6.04928-19.6992 14.78272-30.69952 17.44896-12.83968 3.12064-26.96576 0.98688-40.52992 1.04192-13.36704 0.06144-26.73408 0.0192-40.1024 0.0192-1.44 3.45728-2.88 6.91968-4.31488 10.37568 6.98112 3.83744 13.78432 10.5472 20.9792 10.9952 29.09312 1.82016 58.3104 1.65504 87.47136 2.42176 1.8624 0.04864 3.68384 1.80224 7.00544 3.53664 0.4224 7.30624 1.18272 15.45088 1.30048 23.61216 0.21376 15.40736 0.06144 30.816 0.06144 47.8784-49.96992-0.00256-97.19296-0.00256-146.33984-0.00256zM114.28864 570.50496c-20.71552 8.2624-27.43936 2.84416-26.64832-16.192 1.07264-25.64224 0.27008-51.38176 0.27008-73.51296-25.74208-7.17696-46.79424-13.04832-67.84128-18.91968 0.78464-4.11904 1.56288-8.23168 2.35392-12.34944h155.08608c-9.44384 20.9664-9.44384 20.9664-63.2192 27.25504l-0.00128 93.71904zM1001.91488 573.04192h-26.21312c-0.93696-15.22432-1.81376-29.47968-2.97856-48.3456-24.5888 0-49.30176-1.82656-73.3568 1.34912-5.70624 0.74752-12.68096 18.12864-12.96896 28.04608-0.54656 18.38592-5.78048 24.71168-24.50432 17.23392V500.1728h140.02176v72.86912zM696.81152 550.1824h108.2496c-11.93856 28.45056-17.95072 29.39392-132.70272 22.90816 0-37.58208-0.43648-75.60192 0.60672-113.58336 0.11648-4.1984 8.64128-8.16384 13.26848-12.24576 3.53024 5.27104 9.89824 10.43712 10.10176 15.83104 1.02656 27.85664 0.47616 55.7696 0.47616 87.08992zM242.39488 448.76416h146.8544c-22.94016 34.64064-121.3952 35.84128-146.8544 0zM240.4224 499.07584h147.13728c-17.95328 33.63968-117.42592 36.44544-147.13728 0zM1003.93088 449.6832c-21.88032 33.77664-120.78208 35.3088-145.97248 0h145.97248zM246.78912 551.10144h139.37152c1.09056 3.15008 2.18752 6.31296 3.27296 9.46304-12.37376 4.67072-25.44128 14.56256-36.99328 13.0304-35.81696-4.768-76.9728 17.248-107.92448-13.92384 0.76032-2.85696 1.51296-5.71392 2.27328-8.5696z"
          fill="" p-id="9756"></path>
</svg>
