<svg t="1763992704390" class="icon" viewBox="0 0 9774 1024" version="1.1" xmlns="http://www.w3.org/2000/svg" p-id="5144"
     width="200" height="200">
    <path d="M1838.545455 93.090909h-223.418182c-46.545455 0-83.781818 32.581818-107.054546 74.472727l-353.745454 665.6c-18.618182 37.236364-55.854545 60.509091-102.4 60.509091H707.490909c-195.490909 0-353.745455-158.254545-353.745454-353.745454C353.745455 344.436364 512 186.181818 707.490909 186.181818H1117.090909c9.309091 0 9.309091-4.654545 9.309091-9.309091V93.090909H502.690909C237.381818 93.090909 9.309091 297.890909 9.309091 558.545455c0 256 232.727273 437.527273 493.381818 437.527272h642.327273c65.163636 0 116.363636-37.236364 144.290909-93.090909l9.309091-13.963636 79.127273-148.945455h418.90909l93.09091 200.145455c13.963636 32.581818 51.2 55.854545 97.745454 60.509091h311.854546L1950.254545 167.563636c-18.618182-41.890909-60.509091-74.472727-111.70909-74.472727m-414.254546 544.581818l102.4-190.836363c13.963636-23.272727 41.890909-37.236364 65.163636-37.236364 32.581818 0 60.509091 18.618182 69.818182 46.545455l83.781818 181.527272h-321.163636zM3923.781818 898.327273c-13.963636-4.654545-27.927273-9.309091-32.581818-27.927273V93.090909h-460.8v781.963636c0 65.163636 51.2 116.363636 116.363636 116.363637h977.454546c9.309091 0 9.309091-9.309091 9.309091-13.963637v-88.436363H3923.781818zM2215.563636 93.090909v83.781818c0 4.654545 4.654545 13.963636 13.963637 13.963637H2560c13.963636 0 27.927273 13.963636 27.927273 27.927272v781.963637h386.327272c9.309091 0 9.309091-4.654545 9.309091-9.309091L2978.909091 214.109091c0-13.963636 13.963636-27.927273 27.927273-27.927273h335.127272V88.436364H2215.563636zM8359.563636 851.781818V256c0-23.272727-18.618182-41.890909-41.890909-41.890909h-349.090909V107.054545h390.981818V32.581818h158.254546v74.472727h88.436363v107.054546H8517.818182V884.363636c0 60.509091-51.2 111.709091-111.709091 111.709091h-316.509091c-13.963636 0-23.272727-9.309091-23.272727-23.272727v-74.472727h246.690909c27.927273 0 46.545455-23.272727 46.545454-46.545455M7512.436364 51.2h293.236363c65.163636 0 121.018182 51.2 121.018182 116.363636v828.509091h-414.254545V51.2z m130.327272 507.345455v339.781818h148.945455v-297.890909c0-23.272727-18.618182-41.890909-41.890909-41.890909h-107.054546z m0-414.254546v316.509091h148.945455V186.181818c0-23.272727-18.618182-41.890909-41.890909-41.890909h-107.054546z m381.672728 218.763636l74.472727 358.4h148.945454l-74.472727-311.854545c-4.654545-23.272727-18.618182-46.545455-46.545454-46.545455h-102.4zM8932.072727 297.890909v660.945455c0 18.618182-18.618182 37.236364-37.236363 37.236363h-121.018182V423.563636c-41.890909 23.272727-74.472727 32.581818-74.472727 32.581819V283.927273s60.509091-37.236364 102.4-111.709091c41.890909-69.818182 46.545455-139.636364 46.545454-139.636364h144.290909s13.963636 93.090909-41.890909 228.072727c-4.654545 13.963636-13.963636 23.272727-18.618182 37.236364m688.872728-79.127273c0 23.272727-18.618182 37.236364-37.236364 37.236364H9448.727273l-23.272728-228.072727h-167.563636l23.272727 228.072727H9029.818182V372.363636h269.963636l279.272727 619.054546h186.181819L9481.309091 372.363636h172.218182c65.163636 0 116.363636-51.2 116.363636-116.363636 0-46.545455-18.618182-97.745455-37.236364-139.636364H9588.363636c13.963636 41.890909 27.927273 74.472727 32.581819 102.4zM5199.127273 209.454545v134.981819h-195.490909V97.745455H5450.472727V37.236364h204.8v60.509091h302.545455c97.745455 0 148.945455 41.890909 148.945454 130.327272v121.018182H5911.272727V265.309091c0-41.890909-41.890909-55.854545-107.054545-55.854546h-605.090909z m465.454545 684.218182c0 23.272727-9.309091 46.545455-27.927273 65.163637-27.927273 23.272727-55.854545 37.236364-88.436363 37.236363h-279.272727V884.363636h181.527272c9.309091 0 13.963636 0 18.618182-4.654545 4.654545-9.309091 9.309091-18.618182 9.309091-27.927273v-232.727273c0-65.163636-37.236364-83.781818-116.363636-83.781818h-367.709091V428.218182h1117.090909v46.545454c0 60.509091-9.309091 60.509091-69.818182 60.509091h-381.672727v358.4zM6465.163636 418.909091v539.927273c0 18.618182-13.963636 37.236364-32.581818 37.236363h-111.709091v-451.490909l-4.654545 4.654546-65.163637 32.581818V418.909091c55.854545-23.272727 116.363636-88.436364 139.636364-139.636364-37.236364 32.581818-83.781818 55.854545-139.636364 79.127273V195.490909c74.472727-27.927273 125.672727-107.054545 134.981819-162.909091h139.636363c-13.963636 93.090909-51.2 167.563636-107.054545 223.418182h107.054545c-9.309091 65.163636-27.927273 121.018182-60.509091 162.909091m395.636364 297.890909l190.836364 55.854545v-51.2c4.654545-41.890909 69.818182-37.236364 167.563636 4.654546l153.6 55.854545v88.436364l-200.145455-74.472727v32.581818c0 46.545455-13.963636 65.163636-97.745454 41.890909-55.854545-18.618182-172.218182-46.545455-181.527273-51.2-9.309091-4.654545-32.581818-9.309091-32.581818-32.581818v-69.818182z m18.618182-674.909091h130.327273v37.236364h344.436363V139.636364c0 18.618182-13.963636 27.927273-27.927273 27.927272h-316.50909v60.509091h200.145454c60.509091 0 107.054545 51.2 107.054546 111.709091V535.272727h-749.381819V228.072727h307.2V167.563636h-344.436363V79.127273h344.436363V41.890909z m-181.527273 679.563636v195.49091c0 41.890909 32.581818 74.472727 69.818182 74.472727H7284.363636c23.272727 0 46.545455-23.272727 46.545455-46.545455v-41.890909h-465.454546c-37.236364 0-41.890909-13.963636-41.890909-51.2v-125.672727h-125.672727z m-158.254545 0h121.018181v204.8c0 37.236364-27.927273 65.163636-65.163636 65.163637h-55.854545v-269.963637z m563.2-404.945454v134.981818h93.090909V353.745455c0-23.272727-18.618182-37.236364-37.236364-37.236364h-55.854545z m-204.8 0v134.981818h93.090909V353.745455c0-23.272727-18.618182-37.236364-37.236364-37.236364h-55.854545z m-204.8 0v134.981818h93.090909V353.745455c0-23.272727-18.618182-37.236364-37.236364-37.236364h-55.854545z m-130.327273 269.963636h763.345454v51.2c0 18.618182-13.963636 27.927273-27.927272 27.927273H6562.909091v-79.127273z"
          fill="#0028AA" p-id="5145"></path>
</svg>
