<svg t="1603170432864" class="icon" viewBox="0 0 1024 1024" version="1.1" xmlns="http://www.w3.org/2000/svg" p-id="2713"
     width="260" height="260">
    <path d="M527.36 90.581333a237.738667 237.738667 0 0 1 335.36 0 236.074667 236.074667 0 0 1 7.509333 326.826667l-7.509333 7.808-309.546667 308.48a140.202667 140.202667 0 0 1-197.845333 0 139.349333 139.349333 0 0 1-5.845333-191.36l5.845333-6.186667 171.946667-171.349333 128.341333-128.341333a42.666667 42.666667 0 0 1 63.914667 56.32l-3.541334 4.010666-128.426666 128.426667-171.946667 171.349333a54.016 54.016 0 0 0 0 76.672 54.869333 54.869333 0 0 0 72.874667 3.968l4.437333-3.968 309.546667-308.48a150.741333 150.741333 0 0 0 0-213.76 152.405333 152.405333 0 0 0-208.426667-6.101333l-6.485333 6.101333-343.978667 342.741334a247.466667 247.466667 0 0 0 0 350.848 249.941333 249.941333 0 0 0 344.746667 7.466666l7.808-7.466666 206.336-205.653334a42.666667 42.666667 0 0 1 63.829333 56.448l-3.584 4.010667-206.378667 205.653333a335.274667 335.274667 0 0 1-472.96 0 332.757333 332.757333 0 0 1-8.192-463.317333l8.192-8.405333 343.936-342.741334z"
          fill="#000000" p-id="2714"></path>
</svg>
