<svg t="1604799370095" class="icon" viewBox="0 0 1024 1024" version="1.1" xmlns="http://www.w3.org/2000/svg"
     p-id="12348" width="200" height="200">
    <path d="M512 512m-512 0a512 512 0 1 0 1024 0 512 512 0 1 0-1024 0Z" fill="#35B5FE" opacity=".1"
          p-id="12349"></path>
    <path d="M630.390154 474.663385c48.041354 0.480492 86.866708 39.305846 87.3472 87.3472 0.291446 22.795815-9.184492 44.583385-24.607508 60.770461-16.628185 17.455262-39.085292 26.269538-62.739692 26.568862-34.626954 0.448985-34.666338 54.185354 0 53.736369 77.508923-0.992492 140.0832-63.574646 141.075692-141.075692 1.000369-77.508923-65.079138-140.098954-141.075692-141.075693-34.666338-0.448985-34.626954 53.287385 0 53.73637zM401.211077 649.042708c-48.041354-0.472615-86.866708-39.305846-87.3472-87.3472-0.291446-22.795815 9.184492-44.583385 24.607508-60.770462 16.628185-17.455262 39.085292-26.269538 62.739692-26.568861 34.619077-0.448985 34.658462-54.185354 0-53.73637-77.508923 0.992492-140.0832 63.566769-141.075692 141.075693-1.000369 77.508923 65.071262 140.106831 141.075692 141.075692 34.666338 0.448985 34.626954-53.287385 0-53.728492z"
          fill="#3980FC" p-id="12350"></path>
    <path d="M428.835446 448.441108c0.472615-48.041354 39.305846-86.866708 87.3472-87.339323 22.795815-0.291446 44.583385 9.184492 60.762585 24.59963 17.463138 16.636062 26.269538 39.085292 26.576738 62.739693 0.448985 34.626954 54.185354 34.666338 53.736369 0-1.000369-77.501046-63.574646-140.0832-141.075692-141.075693-77.508923-1.000369-140.106831 65.079138-141.075692 141.075693-0.448985 34.666338 53.287385 34.626954 53.728492 0zM533.0944 493.568a21.504 21.504 0 0 1 0 30.404923l-62.385231 62.385231a21.504 21.504 0 0 1-30.404923-30.404923l62.385231-62.385231a21.504 21.504 0 0 1 30.404923 0z"
          fill="#3980FC" p-id="12351"></path>
    <path d="M502.705231 493.568a21.504 21.504 0 0 1 30.404923 0l62.385231 62.385231a21.504 21.504 0 0 1-30.404923 30.404923l-62.385231-62.385231a21.504 21.504 0 0 1 0-30.404923z"
          fill="#3980FC" p-id="12352"></path>
    <path d="M517.356308 575.314708a22.031754 22.031754 0 0 1 22.03963 22.031754v90.411323a22.031754 22.031754 0 0 1-44.063507 0V597.346462a22.031754 22.031754 0 0 1 22.031754-22.031754z"
          fill="#FF7E00" p-id="12353"></path>
</svg>
