<svg t="1603177423646" class="icon" viewBox="0 0 1024 1024" version="1.1" xmlns="http://www.w3.org/2000/svg"
     p-id="52519" width="260" height="260">
    <path d="M612.536 512A302.112 302.112 0 1 0 8.312 512a302.112 302.112 0 0 0 604.224 0z m-302.112 268.544c-148.064 0-268.544-120.48-268.544-268.544s120.48-268.544 268.544-268.544c148.064 0 268.544 120.48 268.544 268.544s-120.48 268.544-268.544 268.544z"
          p-id="52520"></path>
    <path d="M713.24 209.888h-257.472a334.72 334.72 0 0 1 55.2 33.568h202.272c148.096 0 268.544 120.48 268.544 268.544s-120.48 268.544-268.544 268.544h-202.272a336 336 0 0 1-55.2 33.568h257.472a302.112 302.112 0 0 0 0-604.224z"
          p-id="52521"></path>
</svg>
