<svg t="1604799180042" class="icon" viewBox="0 0 1024 1024" version="1.1" xmlns="http://www.w3.org/2000/svg" p-id="8103"
     width="200" height="200">
    <path d="M880 944h-768a32 32 0 0 1-32-32v-768a32 32 0 0 1 32-32h768a32 32 0 0 1 32 32v768a32 32 0 0 1-32 32z"
          fill="#F2F4F5" p-id="8104"></path>
    <path d="M880 960h-768c-26.464 0-48-21.536-48-48v-768C64 117.536 85.536 96 112 96h704a16 16 0 0 1 0 32h-704a16 16 0 0 0-16 16v768a16 16 0 0 0 16 16h768a16 16 0 0 0 16-16v-512a16 16 0 0 1 32 0v512c0 26.464-21.536 48-48 48z"
          fill="#455A64" p-id="8105"></path>
    <path d="M880 960h-768c-26.464 0-48-21.536-48-48v-768C64 117.536 85.536 96 112 96h704a16 16 0 0 1 0 32h-704a16 16 0 0 0-16 16v768a16 16 0 0 0 16 16h768a16 16 0 0 0 16-16v-512a16 16 0 0 1 32 0v512c0 26.464-21.536 48-48 48z"
          fill="#455A64" p-id="8106"></path>
    <path d="M912 194.112c-11.744 3.008-22.4 9.216-30.816 18.272L496.384 625.664l-129.216-140.928a64.064 64.064 0 0 0-90.4-3.904 64.096 64.096 0 0 0-3.936 90.432l176 192c12 13.12 29.088 20.672 47.008 20.768h0.16c17.728 0 34.784-7.424 46.816-20.384L912 367.136V194.112z"
          fill="#CFD8DC" p-id="8107"></path>
    <path d="M480 720h-0.192a48.128 48.128 0 0 1-35.2-15.552l-176-192a48 48 0 1 1 70.752-64.864l140.896 153.696L876.864 175.296a48 48 0 1 1 70.24 65.44l-432 464A48 48 0 0 1 480 720z"
          fill="#FFFFFF" p-id="8108"></path>
    <path d="M947.136 240.704c12.032-12.928 14.816-30.56 10.08-46.336a47.712 47.712 0 0 0-48.352 12.896L534.08 609.856a29.12 29.12 0 0 1-43.424-0.192l-9.024-9.856-1.344 1.44-116.896-127.488c-18.048-12.864-42.784-12.704-59.808 2.88a48.032 48.032 0 0 0-2.944 67.808l154.08 168.128c7.488 4.672 16.128 7.392 25.088 7.424H480a48 48 0 0 0 35.136-15.296l432-464z"
          fill="#1DE9B6" p-id="8109"></path>
    <path d="M480 736h-0.192a64.096 64.096 0 0 1-47.008-20.768l-176-192a64.096 64.096 0 0 1 3.936-90.432c24.992-22.944 67.456-21.056 90.4 3.904l129.216 140.928L865.184 164.384c23.072-24.768 65.6-26.336 90.464-3.232 25.824 24.032 27.264 64.64 3.232 90.464l-432 464A64.32 64.32 0 0 1 480 736z m-176.032-288a32.032 32.032 0 0 0-23.552 53.632l176 192c6.016 6.56 14.56 10.336 23.456 10.368l0.128 16V704c8.864 0 17.376-3.712 23.392-10.176l432-464a32.032 32.032 0 0 0-1.6-45.216 32.8 32.8 0 0 0-45.216 1.568L492 612.16c-3.04 3.264-7.84 5.6-11.776 5.088a15.936 15.936 0 0 1-11.744-5.184l-140.896-153.696A31.712 31.712 0 0 0 303.968 448z"
          fill="#455A64" p-id="8110"></path>
</svg>
