<svg t="1603176897274" class="icon" viewBox="0 0 1024 1024" version="1.1" xmlns="http://www.w3.org/2000/svg"
     p-id="30770" width="260" height="260">
    <path d="M225.33 593.22c-86.93 0-157.66 70.78-157.66 157.67s70.73 157.67 157.66 157.67S383 837.83 383 750.89s-70.73-157.67-157.67-157.67z m0 286.67a129 129 0 1 1 129-129 129.15 129.15 0 0 1-129 129zM798.67 430.78c86.94 0 157.67-70.73 157.67-157.67S885.6 115.44 798.67 115.44 641 186.17 641 273.11s70.73 157.67 157.67 157.67z m0-286.67a129 129 0 1 1-129 129 129.15 129.15 0 0 1 129-129zM894.22 593.22H703.11A62.18 62.18 0 0 0 641 655.33v191.11a62.18 62.18 0 0 0 62.11 62.11h191.11a62.18 62.18 0 0 0 62.11-62.11V655.33a62.18 62.18 0 0 0-62.11-62.11z m33.44 253.22a33.48 33.48 0 0 1-33.44 33.45H703.11a33.48 33.48 0 0 1-33.45-33.45V655.33a33.48 33.48 0 0 1 33.45-33.44h191.11a33.48 33.48 0 0 1 33.44 33.44zM131.49 429.51h187.68A62.74 62.74 0 0 0 381.73 367V179.27a62.75 62.75 0 0 0-62.56-62.56H131.49a62.75 62.75 0 0 0-62.56 62.56V367a62.75 62.75 0 0 0 62.56 62.51z m14.69-175.58l0.17-0.2a24.55 24.55 0 0 1 34.59-3.07l20.38 17.21a14.14 14.14 0 0 0 19.15-0.83l47.64-48a24.39 24.39 0 0 1 34.49 0l0.4 0.41a24.73 24.73 0 0 1 0 34.77l-72.37 72.8a26.32 26.32 0 0 1-34.41 1.41l-47.12-39.74a24.9 24.9 0 0 1-2.91-34.76z"
          p-id="30771"></path>
</svg>
