<svg t="1603177785672" class="icon" viewBox="0 0 1024 1024" version="1.1" xmlns="http://www.w3.org/2000/svg"
     p-id="58455" width="260" height="260">
    <path d="M296.533333 316.842667a42.666667 42.666667 0 0 1 0 60.330666l-150.869333 150.826667 150.869333 150.869333a42.666667 42.666667 0 0 1-60.330666 60.330667l-181.034667-180.992a42.666667 42.666667 0 0 1 0-60.373333l181.034667-180.992a42.666667 42.666667 0 0 1 60.330666 0z m482.389334-3.584l4.010666 3.584 180.992 180.992a42.666667 42.666667 0 0 1 3.584 56.32l-3.584 4.053333-180.992 180.992a42.666667 42.666667 0 0 1-63.914666-56.32l3.584-4.010667 150.826666-150.869333-150.826666-150.826667a42.666667 42.666667 0 0 1 56.32-63.914666z m-194.901334-11.989334a42.666667 42.666667 0 0 1 25.472 54.656L478.165333 716.8a42.666667 42.666667 0 1 1-80.213333-29.226667l131.370667-360.832a42.666667 42.666667 0 0 1 54.698666-25.472z"
          fill="#000000" fill-opacity=".64" p-id="58456"></path>
</svg>
