<svg t="1603177889946" class="icon" viewBox="0 0 1024 1024" version="1.1" xmlns="http://www.w3.org/2000/svg"
     p-id="61610" width="260" height="260">
    <path d="M915.392 90.816H766.72v-62.08a28.8 28.8 0 0 0-57.472 0v62.08H314.752V29.248a28.736 28.736 0 1 0-57.536 0v61.568H108.544C48.704 90.816 0 139.456 0 199.232v716.288C0 975.36 48.704 1024 108.544 1024h806.784c59.904 0 108.672-48.64 108.672-108.416V199.232c0-59.776-48.768-108.416-108.608-108.416z m44.736 824.768a44.8 44.8 0 0 1-44.736 44.672H108.544a44.736 44.736 0 0 1-44.672-44.672V401.984h896.256v513.6z m0-571.008H63.872V199.232c0-24.64 20.032-44.672 44.672-44.672h148.672v44.736a28.8 28.8 0 0 0 57.536 0v-44.736h394.496v44.224a28.736 28.736 0 0 0 57.472 0v-44.224h148.608a44.8 44.8 0 0 1 44.736 44.672v145.344z"
          p-id="61611"></path>
    <path d="M256 636.608h64a16 16 0 0 0 16-16v-64a16 16 0 0 0-16-16H256a16 16 0 0 0-16 16v64c0 8.832 7.168 16 16 16zM478.976 636.608h65.984a15.04 15.04 0 0 0 14.976-15.04v-65.92a15.04 15.04 0 0 0-14.976-15.04H478.976a15.04 15.04 0 0 0-15.04 15.04v65.92c0 8.32 6.72 15.04 15.04 15.04zM705.024 636.608h62.016a17.088 17.088 0 0 0 17.024-17.088v-61.888a17.024 17.024 0 0 0-17.024-17.024h-62.016a17.088 17.088 0 0 0-17.024 17.024v61.952c0 9.408 7.616 17.024 17.024 17.024zM254.016 838.592h67.968a14.016 14.016 0 0 0 14.016-14.016v-67.968a14.016 14.016 0 0 0-14.016-14.016H254.016a14.016 14.016 0 0 0-14.016 14.016v67.968c0 7.744 6.272 14.016 14.016 14.016zM546.944 742.656H476.992a12.992 12.992 0 0 0-12.992 12.992V825.6c0 7.232 5.824 12.992 12.992 12.992h69.952c7.232 0 13.056-5.76 13.056-12.992v-69.952a12.928 12.928 0 0 0-13.056-12.992zM702.016 838.592h68.032a14.016 14.016 0 0 0 14.016-14.016v-67.968a14.016 14.016 0 0 0-14.016-14.016h-68.032a14.016 14.016 0 0 0-14.016 14.016v67.968c0 7.744 6.272 14.016 14.016 14.016z"
          p-id="61612"></path>
</svg>
