<svg t="1603176746117" class="icon" viewBox="0 0 1024 1024" version="1.1" xmlns="http://www.w3.org/2000/svg"
     p-id="25928" width="260" height="260">
    <path d="M365.714286 365.714286h292.571428c58.514286 0 109.714286-51.2 109.714286-109.714286v-146.285714C768 51.2 716.8 0 658.285714 0H365.714286c-58.514286 0-109.714286 51.2-109.714286 109.714286v146.285714C256 314.514286 307.2 365.714286 365.714286 365.714286z m-36.571429-256c0-21.942857 14.628571-36.571429 36.571429-36.571429h292.571428c21.942857 0 36.571429 14.628571 36.571429 36.571429v146.285714c0 21.942857-14.628571 36.571429-36.571429 36.571429H365.714286c-21.942857 0-36.571429-14.628571-36.571429-36.571429v-146.285714zM658.285714 658.285714H365.714286c-58.514286 0-109.714286 51.2-109.714286 109.714286v146.285714c0 58.514286 51.2 109.714286 109.714286 109.714286h292.571428c58.514286 0 109.714286-51.2 109.714286-109.714286v-146.285714C768 709.485714 716.8 658.285714 658.285714 658.285714z m36.571429 256c0 21.942857-14.628571 36.571429-36.571429 36.571429H365.714286c-21.942857 0-36.571429-14.628571-36.571429-36.571429v-146.285714c0-21.942857 14.628571-36.571429 36.571429-36.571429h292.571428c21.942857 0 36.571429 14.628571 36.571429 36.571429v146.285714z m292.571428-438.857143H36.571429c-21.942857 0-36.571429 14.628571-36.571429 36.571429s14.628571 36.571429 36.571429 36.571429h950.857142c21.942857 0 36.571429-14.628571 36.571429-36.571429s-14.628571-36.571429-36.571429-36.571429z"
          p-id="25929"></path>
</svg>
