<svg t="1604799558989" class="icon" viewBox="0 0 1175 1024" version="1.1" xmlns="http://www.w3.org/2000/svg"
     p-id="20062" width="200" height="200">
    <path d="M1027.670251 660.645161H146.810036a146.810036 146.810036 0 0 0-146.810036 146.810036v216.544803h110.107527V807.455197a36.702509 36.702509 0 0 1 36.702509-36.702509h880.860215a36.702509 36.702509 0 0 1 36.702509 36.702509v216.544803h110.107527V807.455197a146.810036 146.810036 0 0 0-146.810036-146.810036z"
          fill="#4C4A58" p-id="20063"></path>
    <path d="M1174.480287 216.544803V0h-110.107527v216.544803a36.702509 36.702509 0 0 1-36.702509 36.702509H146.810036a36.702509 36.702509 0 0 1-36.702509-36.702509V0H0v216.544803a146.810036 146.810036 0 0 0 146.810036 146.810036h880.860215a146.810036 146.810036 0 0 0 146.810036-146.810036z"
          fill="#4C4A58" p-id="20064"></path>
    <path d="M178.741219 456.579211m55.053763 0l706.890323 0q55.053763 0 55.053763 55.053764l0 0q0 55.053763-55.053763 55.053763l-706.890323 0q-55.053763 0-55.053763-55.053763l0 0q0-55.053763 55.053763-55.053764Z"
          fill="#51C75B" p-id="20065"></path>
</svg>
