<svg t="1603176848725" class="icon" viewBox="0 0 1024 1024" version="1.1" xmlns="http://www.w3.org/2000/svg"
     p-id="29396" width="260" height="260">
    <path d="M768 128 256 128 0 384l0 384c0 70.72 59.285333 128 130.005333 128L896 896c70.72 0 128-57.28 128-128L1024 385.333333 768 128zM291.338667 213.333333l442.912 0 169.194667 171.530667L682.666667 384c0 85.333333-76.416 170.666667-170.666667 170.666667-94.261333 0-170.666667-85.333333-170.666667-170.666667L120.672 384 291.338667 213.333333zM938.666667 768c0 23.530667-19.136 42.666667-42.666667 42.666667L130.005333 810.666667C105.781333 810.666667 85.333333 791.125333 85.333333 768L85.333333 469.333333l181.333333 0 2.581333 0c36.853333 97.312 134.666667 170.666667 241.461333 170.666667 106.688 0 203.776-73.216 240.704-170.4L938.666667 470.336 938.666667 768z"
          p-id="29397"></path>
</svg>
