<svg t="1603176799339" class="icon" viewBox="0 0 1433 1024" version="1.1" xmlns="http://www.w3.org/2000/svg"
     p-id="28499" width="260" height="260">
    <path d="M263.145181 10.04027a34.09903 34.09903 0 0 0-48.230159 48.230159l90.316348 90.418748A740.962695 740.962695 0 0 0 2.640883 498.997825a34.09903 34.09903 0 0 0 0 26.214269C119.3763 807.425083 399.746098 989.90097 716.877312 989.90097a794.620027 794.620027 0 0 0 348.670257-80.895595l105.061874 104.959475a34.09903 34.09903 0 0 0 48.230159-48.127759L263.24758 9.93787zM574.542024 417.99983L810.880042 654.337848A170.392748 170.392748 0 0 1 574.542024 417.99983zM716.877312 921.600512C432.411534 921.600512 180.611193 761.345313 71.24854 512.00256c58.982105-134.450528 160.255199-241.253194 284.875376-312.523237l169.98315 170.085549A236.542817 236.542817 0 0 0 478.081706 512.00256 239.205204 239.205204 0 0 0 716.877312 750.900565a236.542817 236.542817 0 0 0 142.335288-48.127759l154.00883 153.804031A720.687597 720.687597 0 0 1 716.877312 921.600512z m714.236429-422.602687C1314.378325 216.580037 1034.008526 34.104149 716.877312 34.104149c-85.708371 0-170.904745 13.823931-252.209939 40.754997l54.681327 54.783726A737.583512 737.583512 0 0 1 716.877312 102.404608c284.465778 0 536.266119 160.255199 645.526372 409.597952a668.873456 668.873456 0 0 1-202.648586 258.04671l49.458952 49.356553a738.09551 738.09551 0 0 0 221.899691-294.296129 34.09903 34.09903 0 0 0 0-26.111869zM885.836467 496.130639l64.716477 64.818876a239.205204 239.205204 0 0 0-282.622587-282.622587l64.716476 64.614077A169.778351 169.778351 0 0 1 885.836467 496.130639z"
          p-id="28500"></path>
</svg>
