<svg t="1603170735155" class="icon" viewBox="0 0 1024 1024" version="1.1" xmlns="http://www.w3.org/2000/svg"
     p-id="10903" width="260" height="260">
    <path d="M910.222222 642.844444V227.555556l-227.555555-227.555556H227.555556C164.977778 0 113.777778 51.2 113.777778 113.777778v529.066666c-34.133333 17.066667-56.888889 56.888889-56.888889 96.711112v170.666666c0 62.577778 51.2 113.777778 113.777778 113.777778h682.666666c62.577778 0 113.777778-51.2 113.777778-113.777778v-170.666666c0-39.822222-22.755556-79.644444-56.888889-96.711112z m-227.555555-563.2L830.577778 227.555556H682.666667V79.644444zM170.666667 113.777778c0-28.444444 28.444444-56.888889 56.888889-56.888889h398.222222v170.666667c0 28.444444 28.444444 56.888889 56.888889 56.888888h170.666666v341.333334H170.666667V113.777778z m739.555555 796.444444c0 28.444444-28.444444 56.888889-56.888889 56.888889H170.666667c-28.444444 0-56.888889-28.444444-56.888889-56.888889v-170.666666c0-28.444444 28.444444-56.888889 56.888889-56.888889h682.666666c28.444444 0 56.888889 28.444444 56.888889 56.888889v170.666666z"
          p-id="10904"></path>
    <path d="M347.022222 910.222222h-28.444444v-73.955555h-56.888889V910.222222H227.555556v-170.666666h34.133333v68.266666h56.888889V739.555556h34.133333v170.666666zM443.733333 910.222222h-28.444444v-142.222222h-45.511111V739.555556h113.777778v28.444444h-39.822223V910.222222zM568.888889 910.222222l-34.133333-136.533333V910.222222h-28.444445v-170.666666h45.511111l34.133334 130.844444 39.822222-130.844444h45.511111v170.666666h-28.444445v-79.644444-17.066667-17.066667-17.066666l-45.511111 130.844444H568.888889zM705.422222 910.222222v-170.666666h34.133334v142.222222h56.888888v28.444444h-91.022222z"
          p-id="10905"></path>
</svg>
