<svg t="1603170265513" class="icon" viewBox="0 0 1024 1024" version="1.1" xmlns="http://www.w3.org/2000/svg"
     p-id="22407" width="260" height="260">
    <path d="M554.666667 714.666667H170.666667a85.333333 85.333333 0 0 1-85.333334-85.333334v-234.666666a85.333333 85.333333 0 0 1 85.333334-85.333334h384a32 32 0 0 1 0 64H170.666667a21.333333 21.333333 0 0 0-21.333334 21.333334v234.666666a21.333333 21.333333 0 0 0 21.333334 21.333334h384a32 32 0 0 1 0 64zM853.333333 714.666667h-42.666666a32 32 0 0 1 0-64h42.666666a21.333333 21.333333 0 0 0 21.333334-21.333334v-234.666666a21.333333 21.333333 0 0 0-21.333334-21.333334h-42.666666a32 32 0 0 1 0-64h42.666666a85.333333 85.333333 0 0 1 85.333334 85.333334v234.666666a85.333333 85.333333 0 0 1-85.333334 85.333334zM682.666667 842.666667a32.426667 32.426667 0 0 1-32-32V213.333333a32 32 0 0 1 64 0v597.333334a32.426667 32.426667 0 0 1-32 32z"
          fill="#333333" p-id="22408"></path>
    <path d="M768 896h-170.666667v-42.666667a42.666667 42.666667 0 0 1 42.666667-42.666666h85.333333a42.666667 42.666667 0 0 1 42.666667 42.666666z"
          fill="#DCB56D" p-id="22409"></path>
    <path d="M746.666667 202.666667h-128a32 32 0 0 1 0-64h128a32 32 0 0 1 0 64z" fill="#333333" p-id="22410"></path>
</svg>
