<svg t="1605019054808" class="icon" viewBox="0 0 1024 1024" version="1.1" xmlns="http://www.w3.org/2000/svg" p-id="9000"
     width="200" height="200">
    <path d="M888.36363653 755.81818174a8.18181826 8.18181826 0 0 1-4.5 7.32272695l-233.59090958 119.12727305a8.18181826 8.18181826 0 0 1-7.56818174-0.04090869l-255.35454521-135.40909131a73.63636348 73.63636348 0 0 0-67.90909131-0.57272695L135.63636347 839.68181826V464.05454521l66.96818174-31.90909042a32.72727305 32.72727305 0 1 0-28.1454539-59.11363653l-81 38.57727305A40.90909131 40.90909131 0 0 0 70.18181826 448.59090869v431.18181826a40.90909131 40.90909131 0 0 0 59.44090869 36.40909131l219.51818174-111.55909131a8.18181826 8.18181826 0 0 1 7.52727305 0.08181826l255.39545479 135.40909132a73.63636348 73.63636348 0 0 0 67.90909042 0.49090868l233.67272784-119.12727216a73.63636348 73.63636348 0 0 0 40.17272695-65.57727305V359.81818174a40.90909131 40.90909131 0 0 0-54.28636348-38.65909043l-73.63636347 25.48636348a32.72727305 32.72727305 0 0 0 21.3954539 61.85454521l41.07272784-14.23636347v361.55454521z"
          fill="#707070" p-id="9001"></path>
    <path d="M570.37727305 713.27272695C703.00454521 540.75909131 769.72727305 414.14545479 769.72727305 327.90909131a257.72727305 257.72727305 0 0 0-515.4545461 0c0 86.23636348 66.72272695 212.85 199.35 385.36363564a73.63636348 73.63636348 0 0 0 116.7545461 0z m-51.87272784-39.92727216a8.18181826 8.18181826 0 0 1-13.00909042 0C381.37727305 511.91818174 319.72727305 394.91818174 319.72727305 327.90909131a192.27272695 192.27272695 0 0 1 384.5454539 0c0 67.00909131-61.65 184.00909131-185.76818174 345.43636348z"
          fill="#27A176" p-id="9002"></path>
    <path d="M512 460.61818174a132.70909131 132.70909131 0 1 0 0-265.41818174 132.70909131 132.70909131 0 0 0 0 265.41818174z m0-65.45454522a67.25454521 67.25454521 0 1 1 0-134.50909131 67.25454521 67.25454521 0 0 1 0 134.50909132z"
          fill="#27A176" p-id="9003"></path>
</svg>
