<svg t="1603170933933" class="icon" viewBox="0 0 1024 1024" version="1.1" xmlns="http://www.w3.org/2000/svg"
     p-id="16291" width="260" height="260">
    <path d="M505.4 216.45c-59.619 0-109.226 47.241-109.226 107.498 0 58.618 47.969 107.452 109.227 107.452 59.574 0 109.227-47.24 109.227-107.452 0-60.257-48.015-107.497-109.227-107.497z m0 517.826S247.217 450.924 247.217 310.841c0-139.992 115.826-253.952 258.185-253.952 142.313 0 258.139 113.96 258.139 253.997 0 140.038-258.14 423.39-258.14 423.39zM813.194 621.91l89.383-30.947v224.734s-134.075 53.703-233.335 81.419l-347.568-96.12L123.108 877.5V654.45l86.016-22.801a858.385 858.385 0 0 1-3.277-65.127l-148.958 34.18v366.41l49.607-16.294 215.177-79.78L669.24 967.11l297.87-96.028v-366.41L818.153 545.36c-1.638 16.293-1.638 50.517-4.96 76.55z"
          p-id="16292"></path>
</svg>
