<svg t="1603176426014" class="icon" viewBox="0 0 1024 1024" version="1.1" xmlns="http://www.w3.org/2000/svg"
     p-id="21669" width="260" height="260">
    <path d="M872 393.984a8 8 0 0 0 8-8v-59.968a8 8 0 0 0-8-8h-164.032V152a8 8 0 0 0-7.936-8h-64a8 8 0 0 0-8.064 8v166.016H400V152a8 8 0 0 0-8-8h-64A8 8 0 0 0 320 152v166.016H152a8 8 0 0 0-8 8v59.968c0 4.416 3.584 8 8 8H320v236.032H152a8 8 0 0 0-8 8v59.968c0 4.416 3.584 8 8 8H320v166.016c0 4.416 3.584 8 8 8h64a8 8 0 0 0 8-8v-166.016h228.032v166.016c0 4.416 3.584 8 7.936 8h64a8 8 0 0 0 8.064-8v-166.016h163.968a8 8 0 0 0 8-8V638.08a8 8 0 0 0-8-8h-164.032V393.984h164.032zM627.968 630.016H400V393.984h228.032v236.032z"
          p-id="21670"></path>
</svg>
