<svg t="1604799689741" class="icon" viewBox="0 0 1975 1024" version="1.1" xmlns="http://www.w3.org/2000/svg"
     p-id="22950" width="200" height="200">
    <path d="M1933.276831 981.457416H42.542584V42.542584h1890.734247v938.914832" fill="#FFFFFF" p-id="22951"></path>
    <path d="M1933.276831 1024H42.542584a42.542584 42.542584 0 0 1-42.542584-42.542584V42.542584a42.542584 42.542584 0 0 1 42.542584-42.542584h1890.734247a42.542584 42.542584 0 0 1 42.542585 42.542584v938.914832a42.542584 42.542584 0 0 1-42.542585 42.542584zM85.085168 938.914832h1805.649079V85.085168H85.085168z"
          fill="#888888" p-id="22952"></path>
    <path d="M314.247888 266.174768h121.813599" fill="#FFFFFF" p-id="22953"></path>
    <path d="M436.061487 308.717352h-121.813599a42.542584 42.542584 0 0 1 0-85.085168h121.813599a42.542584 42.542584 0 0 1 0 85.085168z"
          fill="#888888" p-id="22954"></path>
    <path d="M314.247888 757.825232h121.813599" fill="#FFFFFF" p-id="22955"></path>
    <path d="M436.061487 800.367816h-121.813599a42.542584 42.542584 0 1 1 0-85.085168h121.813599a42.542584 42.542584 0 0 1 0 85.085168z"
          fill="#888888" p-id="22956"></path>
    <path d="M375.083783 301.626921v411.24498" fill="#FFFFFF" p-id="22957"></path>
    <path d="M375.083783 755.414486a42.542584 42.542584 0 0 1-42.542584-42.542585v-411.24498a42.542584 42.542584 0 0 1 85.085169 0v411.24498a42.542584 42.542584 0 0 1-42.542585 42.542585z"
          fill="#888888" p-id="22958"></path>
    <path d="M1528.980474 232.282509L1332.717352 433.79255h392.526243l-196.263121-201.510041zM1528.980474 791.717491l196.263121-201.510041H1332.717352l196.263122 201.510041z"
          fill="#04BEBD" p-id="22959"></path>
</svg>
