<svg t="1603176987668" class="icon" viewBox="0 0 1024 1024" version="1.1" xmlns="http://www.w3.org/2000/svg"
     p-id="32923" width="260" height="260">
    <path d="M0 0h1024v1024H0z" fill="#FFFFFF" fill-opacity=".01" p-id="32924"></path>
    <path d="M139.636364 139.636364h46.545454v744.727272H139.636364zM837.818182 139.636364h46.545454v744.727272h-46.545454V139.636364zM186.181818 465.454545h651.636364v46.545455H186.181818v-46.545455z m0 372.363637h651.636364v46.545454H186.181818v-46.545454z"
          fill="#7F7F7F" p-id="32925"></path>
    <path d="M372.363636 325.818182h46.545455v512H372.363636V325.818182z m232.727273 0h46.545455v512h-46.545455V325.818182z"
          fill="#7F7F7F" p-id="32926"></path>
    <path d="M186.181818 651.636364h651.636364v46.545454H186.181818z" fill="#7F7F7F" p-id="32927"></path>
    <path d="M139.636364 139.636364h744.727272v186.181818H139.636364z" fill="#449EFF" p-id="32928"></path>
    <path d="M884.363636 325.818182H139.636364V139.636364h744.727272v186.181818z m-46.545454-46.545455V186.181818H186.181818v93.090909h651.636364z"
          fill="#2A8FFC" p-id="32929"></path>
</svg>
