<svg t="1603178017422" class="icon" viewBox="0 0 1024 1024" version="1.1" xmlns="http://www.w3.org/2000/svg"
     p-id="65910" width="260" height="260">
    <path d="M896 704a32 32 0 0 1 32 32v160a32 32 0 0 1-32 32h-128a32 32 0 0 1-32-32v-160a32 32 0 0 1 32-32h128zM288 384a32 32 0 0 1 32 32v192a32 32 0 0 1-32 32H160a32 32 0 0 1-32-32v-192a32 32 0 0 1 32-32h128z m608 13.248a32 32 0 0 1 32 32v160a32 32 0 0 1-32 32h-128a32 32 0 0 1-32-32v-160a32 32 0 0 1 32-32h128zM896 96a32 32 0 0 1 32 32v160a32 32 0 0 1-32 32h-128a32 32 0 0 1-32-32V128a32 32 0 0 1 32-32h128z"
          fill="#FFFFFF" p-id="65911"></path>
    <path d="M896 704a32 32 0 0 1 32 32v160a32 32 0 0 1-32 32h-128a32 32 0 0 1-32-32v-160a32 32 0 0 1 32-32h128z m0 32h-128v160h128v-160z m0-338.752a32 32 0 0 1 32 32v160a32 32 0 0 1-32 32h-128a32 32 0 0 1-32-32v-160a32 32 0 0 1 32-32h128z m0 32h-128v160h128v-160zM896 96a32 32 0 0 1 32 32v160a32 32 0 0 1-32 32h-128a32 32 0 0 1-32-32V128a32 32 0 0 1 32-32h128z m0 32h-128v160h128V128z"
          fill="#3B97D3" p-id="65912"></path>
    <path d="M288 384a32 32 0 0 1 32 32v192a32 32 0 0 1-32 32H160a32 32 0 0 1-32-32v-192a32 32 0 0 1 32-32h128z m0 32H160v192h128v-192z"
          fill="#5D6D7E" p-id="65913"></path>
    <path d="M710.912 218.336a16 16 0 0 1-9.28 20.64 292.064 292.064 0 0 0-188.16 257.024h182.464a16 16 0 0 1 2.88 31.744l-2.88 0.256h-182.496a292 292 0 0 0 188.16 257.024 16 16 0 0 1-11.328 29.952 324 324 0 0 1-188.16-188.16 323.744 323.744 0 0 1-20.704-98.816H370.24a16 16 0 0 1-2.88-31.744l2.88-0.256h111.136a324.064 324.064 0 0 1 208.864-286.976 16 16 0 0 1 20.64 9.28z"
          fill="#7A8A9B" p-id="65914"></path>
</svg>
