<svg t="1603177127761" class="icon" viewBox="0 0 1024 1024" version="1.1" xmlns="http://www.w3.org/2000/svg"
     p-id="43407" width="260" height="260">
    <path d="M848 320v-112h-112V96H64v592h112v112h112v128h672V320zM96 656V128h608v80H176v448z m112 112V240h608v80H288v448z m720 128H320V352h608z"
          p-id="43408"></path>
    <path d="M880 544H368v288h512z m-480 32h112v48h-112z m0 80h112v48h-112z m0 80h112v64h-112z m448 64H544v-64h304z m0-96H544v-48h304z m0-80H544v-48h304zM400 480h32v-16h32v-32h-32v-16h-32v16h-32v32h32v16zM528 480h32v-16h32v-32h-32v-16h-32v16h-32v32h32v16zM688 480h32v-16h32v-32h-32v-16h-32v16h-32v32h32v16zM816 480h32v-16h32v-32h-32v-16h-32v16h-32v32h32v16z"
          p-id="43409"></path>
</svg>
