<svg t="1603177285026" class="icon" viewBox="0 0 1024 1024" version="1.1" xmlns="http://www.w3.org/2000/svg"
     p-id="47044" width="260" height="260">
    <path d="M383.965867 786.1248a17.066667 17.066667 0 0 1-17.066667-17.066667v-375.466666a17.066667 17.066667 0 0 1 17.066667-17.066667 17.066667 17.066667 0 0 1 17.066666 17.066667v119.466666h170.666667a17.066667 17.066667 0 0 1 17.066667 17.066667 17.066667 17.066667 0 0 1-17.066667 17.066667h-170.666667v204.8h170.666667a17.066667 17.066667 0 0 1 17.066667 17.066666 17.066667 17.066667 0 0 1-17.066667 17.066667z"
          fill="#4C5D7C" p-id="47045"></path>
    <path d="M477.866667 409.634133H307.2a34.133333 34.133333 0 0 1-34.133333-34.133333v-136.533333a34.133333 34.133333 0 0 1 34.133333-34.133334h170.666667a34.133333 34.133333 0 0 1 34.133333 34.133334v136.533333a34.133333 34.133333 0 0 1-34.133333 34.133333z m-153.6-170.666666a17.066667 17.066667 0 0 0-17.066667 17.066666v102.4a17.066667 17.066667 0 0 0 17.066667 17.066667h136.533333a17.066667 17.066667 0 0 0 17.066667-17.066667v-102.4a17.066667 17.066667 0 0 0-17.066667-17.066666z"
          fill="#4C5D7C" p-id="47046"></path>
    <path d="M750.967467 614.468267h-136.533334a34.133333 34.133333 0 0 1-34.133333-34.133334v-102.4a34.133333 34.133333 0 0 1 34.133333-34.133333h136.533334a34.133333 34.133333 0 0 1 34.133333 34.133333v102.4a34.133333 34.133333 0 0 1-34.133333 34.133334z m-119.466667-136.533334a17.066667 17.066667 0 0 0-17.066667 17.066667v68.266667a17.066667 17.066667 0 0 0 17.066667 17.066666h102.4a17.066667 17.066667 0 0 0 17.066667-17.066666v-68.266667a17.066667 17.066667 0 0 0-17.066667-17.066667z"
          fill="#4087EC" p-id="47047"></path>
    <path d="M750.967467 853.4016h-136.533334a34.133333 34.133333 0 0 1-34.133333-34.133333v-102.4a34.133333 34.133333 0 0 1 34.133333-34.133334h136.533334a34.133333 34.133333 0 0 1 34.133333 34.133334v102.4a34.133333 34.133333 0 0 1-34.133333 34.133333z m-119.466667-136.533333a17.066667 17.066667 0 0 0-17.066667 17.066666v68.266667a17.066667 17.066667 0 0 0 17.066667 17.066667h102.4a17.066667 17.066667 0 0 0 17.066667-17.066667v-68.266667a17.066667 17.066667 0 0 0-17.066667-17.066666z"
          fill="#4087EC" p-id="47048"></path>
</svg>
