<svg t="1603177204524" class="icon" viewBox="0 0 1024 1024" version="1.1" xmlns="http://www.w3.org/2000/svg"
     p-id="44517" width="260" height="260">
    <path d="M147.6 455.5h524.8c33.4 0 47.7-19.1 47.7-47.7s-14.3-47.7-47.7-47.7H147.6c-28.6 0-47.7 23.9-47.7 52.5-0.1 28.6 19 42.9 47.7 42.9z"
          fill="" p-id="44518"></path>
    <path d="M362.2 145.4v524.8c0 33.4 19.1 47.7 47.7 47.7s47.7-14.3 47.7-47.7V145.4c0-28.6-23.9-47.7-52.5-47.7-28.5 0-42.9 19.1-42.9 47.7z"
          fill="" p-id="44519"></path>
    <path d="M603.6 776.8h295.7c18.8 0 26.9-10.8 26.9-26.9 0-16.1-8.1-26.9-26.9-26.9H603.6c-16.1 0-26.9 13.4-26.9 29.6 0 16.1 10.7 24.2 26.9 24.2z"
          fill="" p-id="44520"></path>
    <path d="M724.5 602.1v295.7c0 18.8 10.8 26.9 26.9 26.9 16.1 0 26.9-8.1 26.9-26.9V602.1c0-16.1-13.4-26.9-29.6-26.9-16.1 0-24.2 10.7-24.2 26.9z"
          fill="" p-id="44521"></path>
</svg>
