<svg t="1603176676508" class="icon" viewBox="0 0 1024 1024" version="1.1" xmlns="http://www.w3.org/2000/svg"
     p-id="23364" width="260" height="260">
    <path d="M111.306 169.783c0-31.383 25.767-56.803 57.393-56.803h228.033c31.713 0 57.392 25.676 57.392 56.803v685.264c0 31.383-25.768 56.802-57.392 56.802H168.729c-31.739-0.027-57.423-25.703-57.423-56.829V169.757v0.026z m57.135 28.815v627.603c0 15.808 12.742 28.563 28.483 28.563h171.581c15.54 0 28.482-12.782 28.482-28.532v-627.66c0-15.777-12.742-28.531-28.482-28.531h-171.58c-15.541 0-28.483 12.78-28.483 28.531v0.026z m342.818-28.302c0-31.666 25.628-57.316 57.311-57.316h285.338c31.656 0 57.311 25.733 57.311 57.316v227.728c0 31.67-25.628 57.316-57.311 57.316H568.569c-31.665-0.048-57.311-25.694-57.311-57.316V170.296z m57.14 28.188v171.352c0.044 15.668 12.733 28.366 28.422 28.444h228.835c15.427 0 28.426-12.725 28.426-28.444V198.484c-0.048-15.668-12.737-28.366-28.426-28.444H596.821c-15.426 0-28.422 12.725-28.422 28.444z m-57.14 371.148c0-31.608 25.628-57.231 57.311-57.231h285.338c31.656 0 57.311 25.593 57.311 57.231V854.59a57.163 57.163 0 0 1-16.778 40.477 57.307 57.307 0 0 1-40.532 16.755h-285.34a57.306 57.306 0 0 1-40.531-16.755 57.184 57.184 0 0 1-16.779-40.477V569.632z m57.14 28.246v228.496c0 15.408 12.742 28.39 28.422 28.39h228.835c15.427 0 28.426-12.725 28.426-28.39V597.848c0-15.408-12.742-28.385-28.426-28.385H596.821c-15.427 0-28.422 12.726-28.422 28.385v0.03z m0 0"
          fill="#333333" p-id="23365"></path>
</svg>
