<svg t="1605066581058" class="icon" viewBox="0 0 1024 1024" version="1.1" xmlns="http://www.w3.org/2000/svg"
     p-id="16421" width="200" height="200">
    <path d="M907.636364 674.909091c-13.963636 0-23.272727 9.309091-23.272728 23.272727v232.727273c0 23.272727-23.272727 46.545455-46.545454 46.545454H93.090909c-23.272727 0-46.545455-23.272727-46.545454-46.545454V186.181818c0-23.272727 23.272727-46.545455 46.545454-46.545454h232.727273c13.963636 0 23.272727-9.309091 23.272727-23.272728S339.781818 93.090909 325.818182 93.090909H93.090909C41.890909 93.090909 0 134.981818 0 186.181818v744.727273c0 51.2 41.890909 93.090909 93.090909 93.090909h744.727273c51.2 0 93.090909-41.890909 93.090909-93.090909v-232.727273c0-13.963636-9.309091-23.272727-23.272727-23.272727z"
          p-id="16422"></path>
    <path d="M977.454545 65.163636c-65.163636-65.163636-167.563636-65.163636-228.072727 0L456.145455 358.4c-37.236364 37.236364-37.236364 102.4 0 139.636364s102.4 37.236364 139.636363 0l246.690909-246.690909c9.309091-9.309091 9.309091-27.927273 0-41.89091-9.309091-9.309091-27.927273-9.309091-37.236363 0L558.545455 456.145455c-13.963636 18.618182-41.890909 18.618182-60.509091 0-18.618182-13.963636-18.618182-41.890909 0-60.509091L791.272727 102.4c41.890909-41.890909 107.054545-41.890909 148.945455 0s41.890909 107.054545 0 148.945455l-37.236364 37.236363-9.309091 9.309091-269.963636 269.963636c-65.163636 65.163636-172.218182 65.163636-237.381818 0S316.509091 390.981818 381.672727 325.818182L651.636364 55.854545c4.654545-4.654545 4.654545-9.309091 9.309091-9.30909 9.309091-9.309091 9.309091-27.927273 0-37.236364s-27.927273-9.309091-37.236364 0l-4.654546 4.654545c0 4.654545-4.654545 4.654545-9.30909 9.309091L344.436364 288.581818c-88.436364 88.436364-88.436364 228.072727 0 316.509091 88.436364 88.436364 228.072727 88.436364 316.509091 0L977.454545 293.236364c60.509091-65.163636 60.509091-167.563636 0-228.072728z"
          p-id="16423"></path>
</svg>
