<svg t="1605067869640" class="icon" viewBox="0 0 1024 1024" version="1.1" xmlns="http://www.w3.org/2000/svg"
     p-id="20474" width="200" height="200">
    <path d="M539.592145 269.963636l0.335128 1.284655 8.285091 54.569891H288.581818a18.618182 18.618182 0 0 0-18.618182 18.618182v474.763636a18.618182 18.618182 0 0 0 18.618182 18.618182h372.363637a18.618182 18.618182 0 0 0 18.618181-18.618182V463.629964l65.163637 62.929454V847.127273a55.854545 55.854545 0 0 1-55.854546 55.854545H260.654545a55.854545 55.854545 0 0 1-55.854545-55.854545V325.818182a55.854545 55.854545 0 0 1 55.854545-55.854546h278.9376z"
          fill="#42434D" p-id="20475"></path>
    <path d="M344.436364 437.527273h130.327272v65.163636H344.436364z" fill="#D8D8D8" p-id="20476"></path>
    <path d="M745.043782 628.5312v-50.129455a121.269527 121.269527 0 0 0 67.332654 11.17091c0.8192-0.121018 1.582545-0.260655 2.280728-0.400291 31.5392-6.4512 52.382255-34.127127 52.382254-67.584 0-17.892073-6.916655-33.9968-18.087563-46.256873l-12.101819-12.092509a56.264145 56.264145 0 0 1-0.316509-0.316509L627.898182 254.277818a32.581818 32.581818 0 1 0-46.08 46.08l150.090473 150.090473-0.167564-0.027927c12.530036 12.427636 18.795055 24.380509 18.795054 35.858618 0 10.742691-1.694255 25.255564-5.082763 43.547927L548.901236 333.265455A79.127273 79.127273 0 0 1 660.805818 221.370182L881.757091 442.321455a109.996218 109.996218 0 0 1 36.938473 82.385454c0 51.963345-31.576436 95.204073-79.741673 106.868364l0.093091 0.288582c-30.906182 7.819636-63.609018 6.711855-94.0032-3.332655z m-65.2288-40.075636a171.194182 171.194182 0 0 1-0.521309-0.530619L481.810618 390.4512A166.874764 166.874764 0 0 1 441.586036 325.818182h50.297019a120.878545 120.878545 0 0 0 22.844509 31.716073l164.864 164.864 0.223418 66.057309zM432.751709 269.963636a167.0144 167.0144 0 0 1 49.058909-116.484654c65.442909-65.442909 171.538618-65.442909 236.972218 0l153.302109 153.302109c5.026909 6.7584 7.521745 13.097891 7.521746 19.037091 0 10.668218-4.933818 23.7568-14.829382 39.265745l-0.1024 0.111709-178.799709-178.799709c-47.262255-47.262255-123.885382-47.262255-171.147636 0A120.617891 120.617891 0 0 0 479.297164 269.963636h-46.545455z"
          fill="#FFAE00" p-id="20477"></path>
    <path d="M344.436364 549.236364h260.654545v65.163636H344.436364zM344.436364 670.254545h260.654545v65.163637H344.436364z"
          fill="#D8D8D8" p-id="20478"></path>
</svg>
