<svg t="1763987879966" class="icon" viewBox="0 0 1024 1024" version="1.1" xmlns="http://www.w3.org/2000/svg"
     p-id="40766" width="200" height="200">
    <path d="M806.77013333 647.73013333V455.22026667c-2.8064-2.02026667-5.89226667-1.04853333-8.7552-1.05493334-34.16426667-0.07893333-68.32746667 0.0128-102.49173333-0.06826666-44.7456-0.10666667-74.22186667-29.64693333-74.27946667-74.3328-0.03946667-30.57386667-0.03733333-61.14666667-0.07786666-91.72053334-0.00106667-0.57493333-0.30933333-1.14986667-0.50666667-1.83786666-2.9792-1.8912-6.3616-0.91093333-9.552-0.91626667-48.24853333-0.07253333-96.49813333-0.04586667-144.74666667-0.0608-3.29386667-0.00106667-6.6176 0.10453333-9.87626666-0.27626667-8.49386667-0.99306667-14.82026667-7.64906667-15.5488-16.03733333-0.69653333-8.02026667 4.04373333-15.37173333 11.65653333-18.32106667 3.75253333-1.45386667 7.62346667-1.3504 11.5168-1.3504 49.14773333 0.0064 98.29653333 0.00426667 147.44426667 0.00426667h9.69813333c0-22.13546667-0.04266667-43.60853333 0.01066667-65.08266667 0.06293333-25.1584 10.11733333-45.1744 31.01333333-59.4528 12.5248-8.55786667 26.64533333-11.98506667 41.60746667-12.00106666 68.92693333-0.07146667 137.856-0.30293333 206.7808 0.06933333 43.4464 0.23466667 72.46293333 29.9776 72.48426666 73.21386667 0.032 65.04426667 0.03306667 130.08746667 0 195.13173333-0.0224 43.3088-29.19573333 72.64533333-72.60373333 72.96213333-18.81066667 0.1376-37.6224 0.02346667-57.296 0.02346667v11.2416c0 114.50133333 0.07146667 229.00266667-0.03306667 343.50293333-0.0448 49.45066667-30.6048 88.37013333-77.47306666 99.1072-8.20266667 1.87946667-16.592 2.38826667-24.99413334 2.38933334-195.39413333 0.01066667-390.7872 0.06506667-586.18133333-0.0256-60.54293333-0.02773333-102.0896-41.80693333-102.0992-102.2912-0.02346667-152.2688-0.0288-304.53653333 0.00213333-456.80533334 0.0128-60.37546667 41.77173333-101.9488 102.336-101.9776 47.05066667-0.0224 94.10026667 0.0128 141.15093334-0.02986666 4.84586667-0.00426667 9.65013333 0.07466667 13.8592 2.80426666 7.00266667 4.54186667 10.26453333 11.1168 8.26666666 19.24053334-2.05226667 8.3424-7.664 13.616-16.61866666 13.78026666-15.27893333 0.27946667-30.56426667 0.17706667-45.84746667 0.1856-35.06346667 0.01813333-70.128-0.20693333-105.18826667 0.0672-35.376 0.27626667-61.904 26.84586667-61.9392 62.19093334-0.128 129.488-0.0512 258.976-0.05226666 388.46506666v7.02933334c22.256-22.30506667 43.1488-43.14453333 63.9264-64.0992 15.02186667-15.14986667 32.752-24.784 54.05653333-27.65546667 27.36426667-3.6896 51.72373333 3.22133333 72.53013333 21.23733333 9.94666667 8.61226667 18.8832 18.3936 28.25173334 27.67146667 11.04746667 10.93866667 18.84053333 11.00906667 29.776 0.07573333 63.79733333-63.7824 128.336-126.848 191.0848-191.64906666 39.10933333-40.38826667 100.52586667-40.83733333 139.4784-0.0352 43.03573333 45.0784 87.92213333 88.3904 132.016 132.4576 2.00853333 2.00533333 4.14506667 3.88053333 7.21386666 6.74026666z m-462.04053333 92.35626667c3.7984 2.87253333 7.2224 4.91306667 9.97653333 7.63306667a4583.9968 4583.9968 0 0 1 45.7504 45.79626666c5.8272 5.92106667 7.23733333 13.1072 3.57866667 20.65706667-3.47413333 7.16906667-9.648 10.52693333-17.5808 10.02026667-6.05653333-0.38613333-10.31466667-4.18133333-14.42666667-8.304-37.46026667-37.5584-74.8928-75.14666667-112.528-112.52906667-23.45706667-23.2992-56.76373333-23.44-80.25386666-0.256-29.008 28.6304-57.6832 57.59893333-86.47253334 86.4512-1.8464 1.85066667-4.0224 3.36426667-4.368 6.48853333-5.60533333 50.6336 28.3936 78.54506667 66.36053334 78.48426667 195.38453333-0.31253333 390.76906667-0.1088 586.15466666-0.17493333 39.99466667-0.01386667 66.24853333-26.53333333 66.32853334-66.65386667 0.06613333-33.26933333-0.11306667-66.5408 0.13333333-99.808 0.04373333-5.86133333-1.68106667-10.00106667-5.8496-14.1504-53.952-53.7024-107.69706667-107.61173333-161.56906667-161.3952-25.75146667-25.70986667-58.50133333-25.68426667-84.16426666-0.0352-59.56586667 59.53173333-119.06986667 119.12426667-178.6656 178.62613333-9.72373333 9.70773333-18.7264 20.2112-32.40426667 29.14986667z m452.52266667-321.95413333c34.76053333 0 69.52106667 0.13013333 104.2816-0.04693334 22.19413333-0.11306667 35.63306667-13.87946667 35.64266666-36.07573333 0.0288-65.3376 0.0224-130.67626667 0.00426667-196.01386667-0.0064-23.7024-13.35466667-37.24586667-37.36853333-37.29173333a55161.84533333 55161.84533333 0 0 0-204.9664-0.0032c-24.3648 0.04373333-37.60746667 13.6224-37.6192 38.05013333-0.02986667 64.43946667-0.0288 128.87786667-0.00106667 193.31733334 0.01066667 24.82773333 13.31946667 38.01173333 38.44266667 38.05333333 33.86026667 0.05546667 67.7216 0.0128 101.584 0.01066667z"
          fill="#030303" p-id="40767"></path>
    <path d="M302.62186667 387.1904c45.26826667 0.2496 82.13653333 37.2256 82.1952 82.4352 0.05866667 45.29386667-37.66293333 82.99946667-82.93013334 82.896-45.49546667-0.10453333-82.53866667-37.50933333-82.3936-83.1968 0.14613333-45.80373333 37.17333333-82.38826667 83.12853334-82.1344z m-0.33706667 35.98613333c-26.14506667-0.0992-46.77866667 20.39466667-46.80746667 46.48853334-0.0288 25.8208 21.1136 47.02186667 46.73813334 46.86826666 25.21173333-0.1504 46.24533333-21.05813333 46.61653333-46.33706666 0.3744-25.59786667-20.736-46.92266667-46.5472-47.01973334zM381.7728 285.0848c-9.9872 0.112-18.0096-7.44-18.208-17.1392-0.19946667-9.7568 8.4576-18.70506667 18.0448-18.65066667 9.49546667 0.05333333 17.55093333 8.26133333 17.64906667 17.9808 0.10026667 9.91253333-7.54346667 17.69706667-17.48586667 17.80906667z"
          fill="#030303" p-id="40768"></path>
    <path d="M344.7296 740.0864c13.67786667-8.93866667 22.68053333-19.44213333 32.40213333-29.1488 59.59466667-59.50186667 119.09973333-119.0944 178.6656-178.62613333 25.664-25.64906667 58.4128-25.67466667 84.16426667 0.0352 53.87093333 53.78346667 107.61706667 107.6928 161.56906667 161.3952 4.16853333 4.14933333 5.89333333 8.28906667 5.8496 14.1504-0.2464 33.26826667-0.06613333 66.53866667-0.13333334 99.808-0.08 40.12053333-26.33386667 66.64106667-66.32853333 66.65386666-195.38453333 0.06506667-390.77013333-0.13866667-586.15466667 0.17493334-37.96693333 0.0608-71.96586667-27.85066667-66.36053333-78.48426667 0.3456-3.12426667 2.5216-4.63786667 4.368-6.48853333 28.78933333-28.85226667 57.46453333-57.8208 86.47253333-86.4512 23.49013333-23.184 56.7968-23.0432 80.25386667 0.256 37.63626667 37.3824 75.06773333 74.97066667 112.528 112.52906666 4.11093333 4.1216 8.36906667 7.91786667 14.42666667 8.304 7.9328 0.5056 14.10666667-2.85226667 17.5808-10.02026666 3.65866667-7.5488 2.24853333-14.736-3.57866667-20.65706667a4572.672 4572.672 0 0 0-45.7504-45.79626667c-2.752-2.72106667-6.17493333-4.76266667-9.9744-7.63413333z"
          fill="#DE9F82" p-id="40769"></path>
    <path d="M797.25226667 418.13333333c-33.86133333 0.00106667-67.72266667 0.04266667-101.584-0.0128-25.1232-0.0416-38.432-13.2256-38.44266667-38.05333333-0.02773333-64.43946667-0.0288-128.87786667 0.00106667-193.31733333 0.01173333-24.4288 13.2544-38.0064 37.6192-38.05013334 68.32213333-0.1216 136.64426667-0.12693333 204.9664 0.0032 24.01386667 0.04586667 37.36213333 13.58933333 37.36853333 37.29173334 0.0192 65.33866667 0.0256 130.67626667-0.00426667 196.01386666-0.0096 22.19626667-13.44853333 35.9616-35.64266666 36.07573334-34.76053333 0.17813333-69.52106667 0.048-104.2816 0.04906666z m87.58933333-161.95626666c0-10.53333333 0.2464-20.4064-0.048-30.2624-0.74666667-24.98773333-19.1968-43.2704-44.1952-43.7824-12.57173333-0.25813333-25.152-0.07146667-37.728-0.0672-25.45173333 0.01066667-50.9056-0.1344-76.3552 0.1344-10.224 0.10773333-17.21386667 7.07413333-17.76213333 16.54293333-0.56746667 9.82293333 6.0992 17.7088 16.3296 19.07626667 2.6528 0.35413333 5.3792 0.20373333 8.07253333 0.20373333 34.73493333 0.01173333 69.46986667 0.07786667 104.20373333-0.0512 6.6528-0.02453333 11.33973333 1.86453333 11.4848 9.27253333 0.192 9.77813333 0.04693333 19.56266667 0.04693334 30.1952-1.7824-0.9792-2.77013333-1.49973333-3.7376-2.05653333-9.6992-5.58186667-18.88853333-4.4096-24.92693334 3.1872-5.9744 7.5168-5.09973333 17.06453333 2.65386667 24.99733333 10.04693333 10.27946667 20.176 20.48426667 30.50666667 30.47573334 7.51253333 7.2672 17.47093333 8.64746667 24.27306666 2.17173333 12.12586667-11.54346667 23.7088-23.71626667 34.8-36.26133333 5.488-6.208 4.94293333-13.97653333 0.11093334-20.78506667-4.9184-6.93013333-11.97226667-8.5888-19.91893334-6.5088-2.49706667 0.656-4.78293333 2.12586667-7.81013333 3.51786667zM744.01066667 310.93333333c2.58026667 1.48693333 3.5424 2.09706667 4.55253333 2.6144 10.0096 5.12 18.38506667 3.89226667 24.09706667-3.51466666 5.9008-7.65226667 4.98666667-16.9504-2.8928-25.03466667-10.0288-10.28906667-20.1568-20.49066667-30.50986667-30.45226667-7.54666667-7.26186667-17.41866667-8.48533333-24.2336-1.97866666-12.10453333 11.5584-23.64693333 23.7472-34.85333333 36.18666666-5.04853333 5.60533333-4.96213333 12.77226667-1.0432 19.29386667 3.8688 6.43733333 9.872 9.696 17.38346666 8.69013333 3.6736-0.49173333 7.15413333-2.4224 11.54026667-3.99466666 0 8.3776-0.05226667 16.34453333 0.0096 24.3104 0.2304 30.02666667 18.18026667 47.91146667 48.24533333 47.96266666 35.02293333 0.05973333 70.0448 0.03626667 105.06773334-0.02346666 3.26506667-0.00533333 6.62186667-0.14293333 9.776-0.8928 8.304-1.9744 13.94986667-9.54453333 13.632-17.71306667-0.33706667-8.68373333-6.8032-15.82506667-15.62346667-16.944-3.25013333-0.41173333-6.5696-0.36266667-9.85813333-0.3648-34.42346667-0.02346667-68.848-0.112-103.27146667 0.05546667-8.1696 0.03946667-12.35093333-2.9824-12.0768-11.5712 0.26666667-8.3456 0.05866667-16.7072 0.05866667-26.62933334z"
          fill="#9DC5FB" p-id="40770"></path>
    <path d="M302.2848 423.17653333c25.8112 0.09813333 46.9216 21.42293333 46.5472 47.0208-0.37013333 25.27893333-21.40373333 46.18666667-46.61653333 46.33706667-25.6256 0.15253333-46.76693333-21.04853333-46.73813334-46.86826667 0.0288-26.096 20.6624-46.5888 46.80746667-46.4896z"
          fill="#FCD58C" p-id="40771"></path>
    <path d="M884.8416 256.17706667c3.0272-1.39306667 5.31306667-2.86293333 7.81226667-3.5168 7.94666667-2.07893333 15.00053333-0.42133333 19.91893333 6.5088 4.83093333 6.80853333 5.37706667 14.57706667-0.11093333 20.78506666-11.0912 12.54506667-22.67413333 24.71786667-34.8 36.26133334-6.80213333 6.47466667-16.75946667 5.09546667-24.27306667-2.17173334-10.33066667-9.99253333-20.45973333-20.19733333-30.50666667-30.47573333-7.7536-7.93386667-8.62826667-17.48053333-2.65386666-24.99733333 6.03733333-7.5968 15.22773333-8.76906667 24.92693333-3.1872 0.9664 0.5568 1.95413333 1.07733333 3.7376 2.05653333 0-10.63253333 0.14506667-20.41706667-0.04693333-30.1952-0.14613333-7.408-4.832-9.29706667-11.4848-9.27253333-34.73386667 0.12906667-69.4688 0.06293333-104.20373334 0.0512-2.69333333-0.00106667-5.41973333 0.1504-8.07253333-0.20373334-10.2304-1.36746667-16.89706667-9.25333333-16.3296-19.07626666 0.5472-9.4688 7.53813333-16.4352 17.76213333-16.54293334 25.4496-0.2688 50.9024-0.12373333 76.3552-0.1344 12.576-0.00533333 25.15733333-0.19093333 37.728 0.0672 24.9984 0.512 43.44853333 18.79573333 44.1952 43.7824 0.2912 9.856 0.04586667 19.728 0.04586667 30.26133334zM744.01066667 310.93333333c0 9.92213333 0.208 18.28373333-0.0576 26.62933334-0.27306667 8.5888 3.9072 11.61066667 12.0768 11.5712 34.42346667-0.16746667 68.848-0.07893333 103.27146666-0.05546667 3.28853333 0.00213333 6.608-0.04693333 9.85813334 0.3648 8.82026667 1.11893333 15.28533333 8.26026667 15.62346666 16.944 0.31786667 8.16853333-5.328 15.73866667-13.632 17.71306667-3.15413333 0.74986667-6.51093333 0.88746667-9.776 0.8928-35.02293333 0.05973333-70.0448 0.0832-105.06773333 0.02346666-30.06506667-0.0512-48.01493333-17.936-48.24533333-47.96266666-0.0608-7.96586667-0.0096-15.9328-0.0096-24.3104-4.38613333 1.57226667-7.86666667 3.50293333-11.54026667 3.99466666-7.51146667 1.00586667-13.51466667-2.2528-17.38346667-8.69013333-3.91893333-6.5216-4.00533333-13.6896 1.0432-19.29386667 11.20533333-12.44053333 22.7488-24.62826667 34.85333334-36.18666666 6.81493333-6.50773333 16.68693333-5.2832 24.2336 1.97866666 10.35306667 9.9616 20.48106667 20.16213333 30.50986666 30.45226667 7.87946667 8.08426667 8.79466667 17.38346667 2.8928 25.03466667-5.712 7.40693333-14.08746667 8.63466667-24.09706666 3.51466666-1.0112-0.51733333-1.97333333-1.12746667-4.5536-2.6144z"
          fill="#030303" p-id="40772"></path>
</svg>
