<svg t="1605066482762" class="icon" viewBox="0 0 1024 1024" version="1.1" xmlns="http://www.w3.org/2000/svg"
     p-id="11186" width="200" height="200">
    <path d="M938.666667 554.666667a128.106667 128.106667 0 0 1-128 128l-42.666667 21.333333H277.333333l-21.333333-21.333333a170.666667 170.666667 0 0 1 0-341.333334 21.056 21.056 0 0 0 19.626667-13.226666 255.914667 255.914667 0 0 1 491.52 80.853333 21.738667 21.738667 0 0 0 7.893333 15.36 21.973333 21.973333 0 0 0 16.64 4.266667A136.234667 136.234667 0 0 1 810.666667 426.666667a128.106667 128.106667 0 0 1 128 128z"
          fill="#42A5F5" p-id="11187"></path>
    <path d="M631.893333 805.973333l-106.666666 85.333334a20.992 20.992 0 0 1-26.453334 0l-106.666666-85.333334a21.248 21.248 0 0 1 26.453333-33.28l72.106667 57.6V533.333333a21.333333 21.333333 0 0 1 42.666666 0v296.96l72.106667-57.6a21.248 21.248 0 0 1 26.453333 33.28z"
          fill="#1976D2" p-id="11188"></path>
    <path d="M981.333333 554.666667a170.88 170.88 0 0 1-170.666666 170.666666h-64a21.333333 21.333333 0 0 1 0-42.666666h64a128 128 0 0 0 0-256 136.234667 136.234667 0 0 0-18.986667 1.92 21.973333 21.973333 0 0 1-16.64-4.266667 21.738667 21.738667 0 0 1-7.893333-15.36 255.914667 255.914667 0 0 0-491.52-80.853333 21.056 21.056 0 0 1-19.626667 13.226666 170.666667 170.666667 0 0 0 0 341.333334h21.333333a21.333333 21.333333 0 0 1 0 42.666666h-21.333333a213.333333 213.333333 0 0 1-14.08-426.24A298.453333 298.453333 0 0 1 807.253333 384H810.666667a170.88 170.88 0 0 1 170.666666 170.666667z"
          fill="#1976D2" p-id="11189"></path>
</svg>
