<svg t="1605067443713" class="icon" viewBox="0 0 1110 1024" version="1.1" xmlns="http://www.w3.org/2000/svg"
     p-id="10040" width="200" height="200">
    <path d="M946.939661 418.312678a23.170169 23.170169 0 0 0 23.100746-23.239593V116.197966c0-64.04339-51.781424-116.197966-115.486373-116.197966H115.477695C51.781424 0 0 52.154576 0 116.197966v790.154848c0 64.04339 51.781424 116.197966 115.477695 116.197966h739.076339c63.696271 0 115.477695-52.154576 115.477695-116.197966V766.915254a23.170169 23.170169 0 0 0-23.092068-23.239593 23.170169 23.170169 0 0 0-23.100746 23.239593v139.43756c0 38.44339-31.084475 69.71878-69.284881 69.718779H115.477695c-38.200407 0-69.284881-31.284068-69.284881-69.718779V232.395932h877.654779v162.677153a23.170169 23.170169 0 0 0 23.092068 23.239593zM46.192814 185.916746V116.197966c0-38.44339 31.084475-69.71878 69.284881-69.71878h739.076339c38.200407 0 69.293559 31.284068 69.293559 69.71878v69.71878H46.192814z m69.284881-46.479187a23.170169 23.170169 0 0 0 23.100746-23.239593 23.170169 23.170169 0 0 0-23.100746-23.239593 23.170169 23.170169 0 0 0-23.092068 23.239593 23.170169 23.170169 0 0 0 23.092068 23.239593z m92.385627 0a23.170169 23.170169 0 0 0 23.100746-23.239593 23.170169 23.170169 0 0 0-23.100746-23.239593 23.170169 23.170169 0 0 0-23.092068 23.239593 23.170169 23.170169 0 0 0 23.092068 23.239593z m92.385627 0a23.170169 23.170169 0 0 0 23.100746-23.239593 23.170169 23.170169 0 0 0-23.100746-23.239593 23.170169 23.170169 0 0 0-23.092068 23.239593 23.170169 23.170169 0 0 0 23.092068 23.239593zM485.020203 464.791864a23.170169 23.170169 0 0 1 23.092068 23.248272v185.916745a23.170169 23.170169 0 0 1-23.092068 23.239594 23.170169 23.170169 0 0 1-23.100745-23.239594v-69.718779H369.533831v69.718779a23.170169 23.170169 0 0 1-23.092068 23.239594 23.170169 23.170169 0 0 1-23.100746-23.239594V488.040136a23.170169 23.170169 0 0 1 23.100746-23.248272 23.170169 23.170169 0 0 1 23.092068 23.248272v69.718779H461.928136v-69.718779a23.170169 23.170169 0 0 1 23.100745-23.248272z m184.762577 0c12.75661 0 23.109424 10.413559 23.109423 23.239594a23.170169 23.170169 0 0 1-23.100745 23.239593h-23.100746v162.68583a23.170169 23.170169 0 0 1-23.092068 23.239594 23.170169 23.170169 0 0 1-23.100746-23.239594V511.271051h-23.092067a23.170169 23.170169 0 0 1-23.100746-23.230915 23.170169 23.170169 0 0 1 23.100746-23.248272h92.376949z m239.789559 1.822373a23.248271 23.248271 0 0 1 14.275254 21.469288v185.916746a23.170169 23.170169 0 0 1-23.092068 23.196204 23.170169 23.170169 0 0 1-23.100745-23.239594v-129.822373l-29.843526 30.025763a23.013966 23.013966 0 0 1-32.655186 0l-29.886915-30.025763v129.822373a23.170169 23.170169 0 0 1-23.100746 23.239594 23.170169 23.170169 0 0 1-23.092068-23.239594V488.040136c0-9.389559 5.640678-17.893966 14.275254-21.477967a23.12678 23.12678 0 0 1 25.166102 5.024543l52.935593 53.308746 52.935593-53.265356a22.814373 22.814373 0 0 1 25.183458-5.024543z m175.945763 184.094373a23.170169 23.170169 0 0 1 23.100745 23.239593 23.170169 23.170169 0 0 1-23.100745 23.239594h-92.385627a23.170169 23.170169 0 0 1-23.092068-23.239594V488.031458a23.170169 23.170169 0 0 1 23.092068-23.239594 23.170169 23.170169 0 0 1 23.100745 23.239594v162.677152h69.284882z"
          fill="#4F5F78" p-id="10041"></path>
</svg>
