<svg t="1605067628294" class="icon" viewBox="0 0 1251 1024" version="1.1" xmlns="http://www.w3.org/2000/svg"
     p-id="14676" width="200" height="200">
    <path d="M461.596444 497.436444l359.879112 425.415112C859.932444 968.817778 807.822222 1024 724.423111 1024l-637.496889-27.875556-5.518222-0.170666L0 814.648889l268.344889-317.155556c41.244444-48.867556 152.064-48.867556 193.251555 0z"
          fill="#5B8FF8" p-id="14677"></path>
    <path d="M930.929778 644.380444l268.515555 259.584-45.340444 88.462223L365.568 1024c-1.991111-10.353778 1.706667-21.276444 12.231111-31.573333l359.879111-348.046223c41.244444-39.992889 152.064-39.992889 193.251556 0z"
          fill="#5AD8A6" p-id="14678"></path>
    <path d="M1137.777778 1024H113.777778a113.777778 113.777778 0 0 1-113.777778-113.777778V113.777778a113.777778 113.777778 0 0 1 113.777778-113.777778h1024a113.777778 113.777778 0 0 1 113.777778 113.777778v796.444444a113.777778 113.777778 0 0 1-113.777778 113.777778zM67.299556 122.936889V901.12a56.888889 56.888889 0 0 0 56.888888 56.888889h1003.178667a56.888889 56.888889 0 0 0 56.888889-56.888889V122.88a56.888889 56.888889 0 0 0-56.888889-56.888889H124.188444a56.888889 56.888889 0 0 0-56.888888 56.888889z"
          fill="#5D7092" p-id="14679"></path>
    <path d="M886.499556 204.8c87.153778 0 156.444444 68.039111 156.444444 153.6 0 85.560889-69.290667 153.6-156.444444 153.6s-156.444444-68.039111-156.444445-153.6c0-85.560889 69.290667-153.6 156.444445-153.6z m0 51.2c-59.107556 0-104.277333 44.373333-104.277334 102.4s45.169778 102.4 104.277334 102.4c59.164444 0 104.334222-44.373333 104.334222-102.4s-45.226667-102.4-104.334222-102.4z"
          fill="#5B8FF8" p-id="14680"></path>
</svg>
