<svg t="1605066427919" class="icon" viewBox="0 0 1024 1024" version="1.1" xmlns="http://www.w3.org/2000/svg" p-id="9769"
     width="200" height="200">
    <path d="M632.984631 699.01 66.114031 699.01C29.685095 699.01 0.03879 669.374778 0.03879 632.945842L0.03879 66.064159C0.03879 29.635222 29.685095 0 66.114031 0l566.8706 0c36.428936 0 66.064159 29.635222 66.064159 66.064159l0 191.454176c0 14.119399-11.448461 25.578943-25.578943 25.578943s-25.578943-11.448461-25.578943-25.578943L647.890904 66.064159c0-8.079311-6.826962-14.917356-14.917356-14.917356L66.102948 51.146803c-8.090394 0-14.928438 6.826962-14.928438 14.917356l0 566.881683c0 8.079311 6.826962 14.917356 14.928438 14.917356L632.973549 647.863198c8.079311 0 14.917356-6.826962 14.917356-14.917356l0-189.293043c0-14.119399 11.448461-25.578943 25.578943-25.578943s25.578943 11.448461 25.578943 25.578943l0 189.293043C699.04879 669.374778 669.413568 699.01 632.984631 699.01z"
          p-id="9770"></path>
    <path d="M957.897052 1024 391.026451 1024c-36.428936 0-66.075241-29.635222-66.075241-66.064159L324.95121 766.514914c0-14.119399 11.448461-25.578943 25.578943-25.578943s25.578943 11.448461 25.578943 25.578943l0 191.420927c0 8.079311 6.826962 14.917356 14.928438 14.917356l566.8706 0c8.079311 0 14.917356-6.826962 14.917356-14.917356L972.82549 391.065241c0-8.079311-6.826962-14.917356-14.917356-14.917356L391.037534 376.147885c-8.090394 0-14.928438 6.826962-14.928438 14.917356l0 189.049223c0 14.119399-11.448461 25.578943-25.578943 25.578943s-25.578943-11.448461-25.578943-25.578943L324.95121 391.065241c0-36.428936 29.646305-66.064159 66.075241-66.064159l566.8706 0c36.428936 0 66.064159 29.635222 66.064159 66.064159l0 566.8706C1023.96121 994.364778 994.325988 1024 957.897052 1024z"
          p-id="9771"></path>
</svg>
