<svg t="1605066919397" class="icon" viewBox="0 0 1024 1024" version="1.1" xmlns="http://www.w3.org/2000/svg" p-id="2209"
     width="200" height="200">
    <path d="M234.254 567.55c10.1-10.1 10.1-25.25 0-35.35s-25.25-10.1-35.35 0L97.906 633.198c-70.7 73.224-70.7 189.373 0 262.597 35.35 35.35 80.798 53.024 131.298 53.024s95.949-20.2 131.298-53.024l219.672-219.672c70.7-73.224 70.7-189.373 0-262.597-10.1-10.1-25.25-10.1-35.35 0-10.1 10.1-10.1 25.25 0 35.35 53.025 53.024 53.025 138.873 0 189.372L325.154 857.92c-25.25 25.25-58.075 40.4-95.95 40.4s-70.698-15.15-95.948-40.4c-53.024-53.024-53.024-138.873 0-189.372l100.999-100.999z"
          p-id="2210"></path>
    <path d="M794.796 60.031c-50.5 0-95.949 20.2-131.298 53.024L443.826 332.727c-70.7 73.224-70.7 189.373 0 262.597 5.05 5.05 12.625 7.575 17.675 7.575s12.625-2.525 17.674-7.575c10.1-10.1 10.1-25.25 0-35.35-53.024-53.024-53.024-138.873 0-189.372L698.847 150.93c25.25-25.25 58.075-40.4 93.424-40.4 35.35 0 70.7 15.15 95.949 40.4 53.024 53.024 53.024 138.873 0 189.372L787.22 441.301c-10.1 10.1-10.1 25.25 0 35.35s25.25 10.1 35.35 0l100.998-101c70.7-73.223 70.7-189.372 0-260.07-32.824-35.35-80.798-55.55-128.773-55.55z"
          p-id="2211"></path>
</svg>
