<svg t="1605067188663" class="icon" viewBox="0 0 1024 1024" version="1.1" xmlns="http://www.w3.org/2000/svg" p-id="7656"
     width="200" height="200">
    <path d="M796.009 1010.681H247.735c-38.598 0-70-31.402-70-70V106.448c0-38.598 31.402-70 70-70h548.274c38.598 0 70 31.402 70 70V940.68c0 38.598-31.403 70.001-70 70.001zM247.735 54.448c-28.673 0-52 23.327-52 52V940.68c0 28.673 23.327 52 52 52h548.274c28.673 0 52-23.327 52-52V106.448c0-28.673-23.327-52-52-52H247.735z"
          p-id="7657"></path>
    <path d="M425.127 111.61h193.49v18h-193.49zM521.872 914.07c-40.94 0-74.247-33.307-74.247-74.246 0-40.94 33.307-74.247 74.247-74.247s74.247 33.307 74.247 74.247-33.306 74.246-74.247 74.246z m0-130.493c-31.015 0-56.247 25.232-56.247 56.247s25.232 56.246 56.247 56.246 56.247-25.231 56.247-56.246-25.232-56.247-56.247-56.247z"
          p-id="7658"></path>
</svg>
