<svg t="1763988402068" class="icon" viewBox="0 0 1024 1024" version="1.1" xmlns="http://www.w3.org/2000/svg"
     p-id="50042" width="200" height="200">
    <path d="M951.242937 602.012405l59.932455-59.932454a42.2484 42.2484 0 0 0 0-59.81873L951.242937 422.328766a42.2484 42.2484 0 0 0-72.157765 29.909365V460.994866H563.217256V153.883684h315.867916v8.756734a42.2484 42.2484 0 0 0 72.157765 29.909366l59.932455-59.989317a42.2484 42.2484 0 0 0 0-59.761868L951.242937 12.809283a42.2484 42.2484 0 0 0-72.157765 29.852503v8.813596H512.041536a51.17572 51.17572 0 0 0-51.17572 51.17572V460.994866H191.056048A102.237716 102.237716 0 1 0 13.703748 563.346306a102.237716 102.237716 0 0 0 177.238576 0h269.923492v358.343763a51.17572 51.17572 0 0 0 51.17572 51.17572h366.986774v8.813596a42.2484 42.2484 0 0 0 72.157765 29.852504l59.932455-59.989316a42.2484 42.2484 0 0 0 0-59.761869l-59.932455-59.989316a42.2484 42.2484 0 0 0-72.157765 29.909365v8.756734H563.217256v-307.054319h315.867916v8.756734a42.2484 42.2484 0 0 0 72.157765 29.909365z"
          fill="#035DFF" p-id="50043"></path>
</svg>
