<svg t="1605066278741" class="icon" viewBox="0 0 1024 1024" version="1.1" xmlns="http://www.w3.org/2000/svg" p-id="4445"
     width="200" height="200">
    <path d="M682.666667 21.333333V170.666667a85.333333 85.333333 0 0 0 85.333333 85.333333h170.666667v661.333333a85.333333 85.333333 0 0 1-85.333334 85.333334H170.666667a85.333333 85.333333 0 0 1-85.333334-85.333334v-810.666666a85.333333 85.333333 0 0 1 85.333334-85.333334h512z"
          fill="#EB1D25" p-id="4446"></path>
    <path d="M682.666667 21.333333l128 117.333334L938.666667 256h-170.666667a85.333333 85.333333 0 0 1-85.333333-85.333333V21.333333z"
          fill="#FFBCBD" p-id="4447"></path>
    <path d="M645.205333 431.786667c11.733333-4.053333 24.832-5.888 37.461334-5.888v-84.48a178.005333 178.005333 0 0 0-146.773334 69.12 290.688 290.688 0 0 0-36.522666 61.44l-27.093334 67.328c-6.784 20.309333-15.36 41.130667-24.832 60.544-6.784 16.256-15.36 30.72-25.728 45.184a84.693333 84.693333 0 0 1-33.408 27.093333A111.36 111.36 0 0 1 341.333333 682.538667v85.333333a178.602667 178.602667 0 0 0 146.773334-69.12c11.264-15.36 21.205333-31.573333 29.781333-48.768l23.04-53.76h98.858667v-84.053333H575.146667c4.992-12.629333 11.776-24.832 19.456-36.565334 5.845333-10.410667 13.525333-18.986667 22.101333-26.666666s18.048-13.994667 28.458667-17.152z"
          fill="#FFFFFF" p-id="4448"></path>
</svg>
