<?xml version="1.0" encoding="utf-8"?>
<svg t="1688210027307" class="icon" viewBox="0 0 1024 1024" version="1.1" xmlns="http://www.w3.org/2000/svg" p-id="4577"
     id="mx_n_1688210027308" width="200" height="200">
    <path d="M235.27424 248.7296c-50.7904 0-94.47424 16.81408-131.09248 50.42176-38.0928 35.86048-57.1392 80.65024-57.1392 134.43072 0 35.86048 10.38336 69.46816 31.29344 100.82304 18.67776 29.12256 38.17472 47.80032 63.77472 56.03328l0 2.23232c-25.6 10.4448-36.9664 36.59776-36.9664 78.41792 0 32.13312 11.3664 56.0128 36.9664 71.70048l0 2.23232c-70.656 23.1424-102.99392 66.08896-102.99392 128.83968 0 54.53824 23.7568 94.49472 70.06208 119.86944 36.59776 20.1728 83.57888 30.24896 140.34944 30.24896 138.17856 0 207.40096-57.87648 207.40096-173.6704 0-72.43776-53.32992-116.87936-160.13312-133.3248-24.63744-3.72736-43.29472-12.6976-55.97184-26.89024-9.70752-9.70752-14.5408-19.41504-14.5408-29.12256 0-27.62752 14.9504-43.70432 44.81024-48.16896 45.568-6.71744 82.71872-27.83232 111.49312-63.30368s43.13088-77.12768 43.13088-124.90752c0-14.92992-4.52608-30.98624-10.48576-48.16896 19.41504-4.48512 33.05472-8.6016 43.29472-12.32896l0-115.38432c-45.056 17.92-86.99904 26.89024-122.83904 26.89024-31.37536-17.92-63.81568-26.89024-100.41344-26.89024zM247.6032 807.77216c62.75072 0 94.1056 19.0464 94.1056 57.1392 0 40.3456-28.75392 60.49792-86.26176 60.49792-65.72032 0-98.59072-19.41504-98.59072-58.24512 0-39.58784 30.24896-59.37152 90.74688-59.37152zM239.75936 512c-47.06304 0-70.59456-25.76384-70.59456-77.312 0-55.25504 23.53152-82.90304 70.59456-82.90304 22.40512 0 39.95648 8.6016 52.65408 25.76384 10.46528 15.68768 15.68768 34.36544 15.68768 56.0128 0 52.28544-22.79424 78.41792-68.34176 78.41792zM580.38272 0c-21.64736 0-40.1408 8.21248-55.45984 24.65792s-22.97856 36.20864-22.97856 59.37152c0 22.40512 7.65952 41.82016 22.97856 58.2656s33.792 24.63744 55.45984 24.63744c20.91008 0 39.03488-8.21248 54.33344-24.63744s22.95808-35.84 22.95808-58.2656c0-23.16288-7.63904-42.94656-22.95808-59.37152s-33.42336-24.65792-54.33344-24.65792zM643.13344 256l-126.60736 0c1.49504 14.336-0.63488 36.0448-0.63488 71.14752l0 348.42624c0 35.86048 2.12992 64.77824 0.63488 76.04224l126.60736 0c-1.49504-16.384-5.38624-44.66688-5.38624-82.75968l0-343.94112c0-32.8704 3.8912-54.55872 5.38624-68.89472zM922.33728 644.1984c-32.8704 0-49.09056-25.02656-49.09056-75.0592l0-206.6432 49.8688 0c8.97024 0 17.03936-0.49152 27.11552 0.24576s14.15168 0.24576 19.27168 0.24576l0-106.98752-96.256 0 0-47.616c0-17.92 2.82624-34.304 5.05856-44.544l-129.96608 0c2.23232 10.24 2.02752 25.86624 2.02752 46.7968l0 45.3632-56.32 0 0 106.98752c15.36-2.23232 29.0816-3.35872 38.78912-3.35872l17.53088 1.1264 0 202.79296c0 62.75072 7.96672 108.66688 23.63392 137.80992 20.93056 38.83008 57.63072 58.2656 112.128 58.2656 38.85056 0 73.1136-7.45472 98.7136-22.40512l0-112.0256c-20.48 12.6976-39.38304 19.0464-62.52544 19.0464z"
          fill="#aaaaaa" p-id="4578"></path>
</svg>
