<svg t="1603443432351" class="icon" viewBox="0 0 1024 1024" version="1.1" xmlns="http://www.w3.org/2000/svg" p-id="4491"
     width="260" height="260">
    <path d="M480.395062 1011.358025v-221.234568c0-53.728395-41.08642-94.814815-94.814815-94.814815s-94.814815 41.08642-94.814815 94.814815v221.234568h63.209877v-126.419753h63.209876v126.419753h63.209877z m-126.419753-189.62963v-31.604938c0-18.962963 12.641975-31.604938 31.604938-31.604938s31.604938 12.641975 31.604938 31.604938v31.604938h-63.209876zM37.925926 853.333333v63.209877c0 50.567901 41.08642 94.814815 94.814815 94.814815s94.814815-41.08642 94.814815-94.814815v-158.024691h31.604938v-63.209877H132.740741v63.209877h31.604938v158.024691c0 15.802469-12.641975 31.604938-31.604938 31.604938s-31.604938-12.641975-31.604939-31.604938v-63.209877H37.925926zM543.604938 695.308642v233.876543l94.814815 94.814815 94.814815-94.814815V695.308642h-63.209877v208.592593l-31.604938 31.604938-31.604938-31.604938V695.308642zM986.074074 1011.358025v-221.234568c0-53.728395-41.08642-94.814815-94.814815-94.814815s-94.814815 41.08642-94.814815 94.814815v221.234568h63.209877v-126.419753h63.209877v126.419753h63.209876z m-126.419753-189.62963v-31.604938c0-18.962963 12.641975-31.604938 31.604938-31.604938s31.604938 12.641975 31.604939 31.604938v31.604938h-63.209877zM6.320988 632.098765h63.209876V252.839506h884.938272v379.259259h63.209876V0H6.320988v632.098765zM69.530864 63.209877h884.938272v126.419753H69.530864V63.209877z"
          p-id="4492"></path>
    <path d="M132.740741 94.814815h63.209876v63.209876H132.740741zM259.160494 94.814815h63.209876v63.209876H259.160494zM385.580247 94.814815h63.209876v63.209876h-63.209876z"
          p-id="4493"></path>
</svg>
