<svg t="1603443522170" class="icon" viewBox="0 0 1024 1024" version="1.1" xmlns="http://www.w3.org/2000/svg" p-id="5257"
     width="260" height="260">
    <path d="M0 0m204.8 0l614.4 0q204.8 0 204.8 204.8l0 614.4q0 204.8-204.8 204.8l-614.4 0q-204.8 0-204.8-204.8l0-614.4q0-204.8 204.8-204.8Z"
          fill="#00C278" p-id="5258"></path>
    <path d="M521.728 181.12l3.072 1.5104 257.28 148.48 1.6384 1.2032 2.0224 1.7408 2.2528 2.4832 1.3824 1.8944 1.6896 2.944 0.9728 2.3296 0.768 2.3552 0.5632 2.9184 0.256 2.9696V648.192a25.6 25.6 0 0 1-10.3168 20.5056l-2.5088 1.664-256.1536 147.8144a25.2416 25.2416 0 0 1-22.4 1.4336l-4.0192-2.0992L243.2 670.3616a25.6 25.6 0 0 1-12.6208-19.1488L230.4 648.192l0.0256-297.1648 0.256-2.176 0.4352-2.3552 0.8448-2.7904 0.8704-2.0736 1.024-1.9456 0.9728-1.5872 1.536-2.0224 2.2784-2.3808 1.6384-1.408 2.9184-1.9456 256-147.712a25.6 25.6 0 0 1 22.528-1.5104zM512 234.3424l-204.8256 118.1696 106.8032 61.7984a25.6 25.6 0 0 1-22.9632 45.6704l-2.688-1.3568L281.6 396.8768v236.5184l204.7744 118.144 0.0256-123.0336a25.6 25.6 0 0 1 51.0208-2.9952l0.1792 2.9952-0.0256 123.0592L742.4 633.3952v-236.5184l-106.752 61.7472a25.6 25.6 0 0 1-28.1088-42.6752l2.4832-1.6384L716.8 352.512 512 234.3424z m0 214.9632a51.2 51.2 0 1 1 0 102.4 51.2 51.2 0 0 1 0-102.4z"
          fill="#FFFFFF" opacity=".9" p-id="5259"></path>
</svg>
