<svg t="1603169311690" class="icon" viewBox="0 0 1024 1024" version="1.1" xmlns="http://www.w3.org/2000/svg"
     p-id="10096" width="260" height="260">
    <path d="M154.012786 1.365333c0.113778 0.910222-1.934222 1.820444-5.461334 2.389334-18.773333 3.299556-29.809778 6.940444-48.924444 16.156444-36.067556 17.408-64.512 45.852444-81.92 81.92-9.329778 19.456-12.401778 28.785778-16.384 50.176-1.706667 9.557333-1.820444 711.224889 0 721.123556 4.551111 25.713778 7.623111 35.271111 17.294222 55.296 8.988444 18.659556 17.749333 30.947556 32.995556 46.421333 20.024889 20.366222 43.690667 35.271111 69.632 43.576889 6.257778 2.048 12.401778 4.096 13.653333 4.664889 1.251556 0.568889 168.96 0.796444 372.622222 0.568889 406.414222-0.341333 371.370667 0.227556 392.874667-6.826667 46.193778-15.473778 85.560889-50.972444 105.358222-95.232 2.048-4.664889 4.209778-9.329778 4.664889-10.24 0.910222-1.934222 3.868444-11.946667 6.371556-21.504 0.910222-3.413333 2.161778-9.443556 2.730666-13.653333 0.568889-4.323556 1.820444-7.964444 2.844445-8.760889 1.479111-1.137778 1.706667-37.774222 1.706666-356.920889 0-307.2-0.227556-355.669333-1.592888-356.124445-1.024-0.455111-1.934222-2.958222-2.389334-6.144-1.024-8.305778-4.437333-20.593778-10.353778-36.864-2.616889-7.281778-11.036444-22.983111-17.408-32.312888-12.856889-19.114667-26.624-33.336889-44.714666-46.421334-10.353778-7.281778-10.353778-7.395556-24.917334-14.677333-13.653333-6.712889-28.785778-12.174222-38.798222-13.880889-2.730667-0.455111-4.323556-1.365333-4.323555-2.389333C879.573675 0.227556 833.493675 0 516.622564 0 229.902564 0 153.78523 0.341333 154.012786 1.365333z m155.306666 156.330667c2.389333 0.682667 2.503111 1.365333 2.503112 10.126222s-0.113778 9.443556-2.503112 10.126222c-4.323556 1.137778-120.832 0.796444-122.652444-0.455111-1.137778-0.682667-1.820444-3.640889-2.048-9.216-0.455111-6.940444-0.227556-8.533333 1.592889-9.784889 1.592889-1.137778 13.880889-1.479111 61.212444-1.479111 32.654222 0 60.416 0.341333 61.895111 0.682667z m174.648889 2.958222c9.443556 3.754667 16.270222 7.623111 21.276445 12.288 3.072 2.844444 3.527111 3.754667 2.161778 4.664889-0.910222 0.568889-38.456889 1.024-88.860445 1.024-77.824 0-87.381333-0.227556-88.974222-1.820444-2.730667-2.616889-2.503111-16.952889 0.227555-18.659556 1.251556-0.796444 25.258667-1.024 74.183112-0.796444l72.248888 0.341333 7.736889 2.958222zM648.604786 159.288889c1.251556 1.251556 2.275556 3.185778 2.275555 4.209778 0 1.137778 0.910222 4.551111 1.934223 7.509333 1.706667 4.778667 1.706667 5.575111 0.341333 6.485333-2.275556 1.479111-101.262222 1.479111-103.537778 0-2.161778-1.365333-3.072-16.384-1.137778-18.773333 1.251556-1.479111 8.305778-1.706667 49.607111-1.706667 46.762667 0 48.355556 0.113778 50.517334 2.275556z m186.709333-1.137778c1.820444 1.024 2.161778 2.503111 2.161778 8.305778 0 4.551111-0.682667 7.964444-1.820445 9.671111l-1.706666 2.503111h-51.768889c-45.283556 0-51.768889-0.227556-52.337778-1.706667-1.024-2.503111 3.982222-17.521778 6.257778-18.773333 2.616889-1.479111 96.369778-1.479111 99.214222 0z m-524.060444 47.786667v9.671111l-62.008889 0.341333c-70.087111 0.341333-64.853333 1.024-64.853334-8.988444 0-2.958222 0.455111-6.712889 1.137778-8.305778l1.137778-2.958222 62.236444 0.227555 62.350223 0.341334v9.671111z m213.788444-8.078222c2.389333 2.616889 5.802667 14.222222 4.892445 16.611555-0.682667 1.479111-11.491556 1.706667-100.352 1.706667H330.027008l-1.137778-2.730667c-1.251556-3.413333-1.251556-11.719111 0.113778-15.246222l1.024-2.503111h96.483556c92.956444 0 96.711111 0.113778 98.531555 2.161778z m136.192 0.341333c2.161778 3.982222 5.575111 15.928889 4.892445 17.066667-0.341333 0.455111-26.851556 0.910222-59.050667 0.910222-65.877333 0-59.733333 1.024-59.733333-9.784889 0-11.719111-5.461333-10.695111 57.457777-10.695111h55.068445l1.365333 2.503111z m175.104 0.455111c1.479111 3.754667 1.479111 12.515556 0 15.36-1.137778 2.048-3.072 2.161778-60.529778 2.161778h-59.164444l0.568889-2.616889c2.503111-9.898667 3.299556-12.629333 4.892444-15.132445l1.820445-2.730666H835.200341l1.137778 2.958222z m-561.493333 38.343111c0.341333 1.365333 0.568889 5.916444 0.341333 9.898667l-0.341333 7.395555h-53.475556l-0.341333-8.419555c-0.227556-4.664889-0.113778-9.102222 0.227555-10.012445 0.455111-1.137778 5.916444-1.479111 26.737778-1.479111H274.275897l0.568889 2.616889z m143.701333 7.850667l0.341333 10.012444h-26.055111c-18.659556 0-26.282667-0.341333-27.306666-1.365333-1.706667-1.706667-1.820444-13.880889-0.227556-16.952889 1.137778-2.048 2.389333-2.161778 27.079111-1.934222l25.827556 0.341333 0.341333 9.898667z m112.298667-1.024c0 6.599111-0.455111 9.102222-1.706667 9.898666-2.616889 1.706667-52.679111 1.479111-54.385778-0.227555s-1.820444-13.880889-0.227555-16.952889c1.137778-2.048 2.503111-2.161778 28.785778-1.934222l27.534222 0.341333v8.874667zM673.635897 236.657778c1.934222 3.982222 3.754667 10.012444 4.209778 13.880889l0.568889 4.323555h-47.217778c-53.361778 0-48.583111 0.910222-48.583111-9.784889 0-11.605333-3.868444-10.808889 46.307555-10.467555 37.660444 0.341333 44.032 0.568889 44.714667 2.048z m126.862222 7.964444v9.671111l-47.331555 0.341334c-38.115556 0.227556-47.559111 0-48.014223-1.251556-0.568889-1.479111 3.413333-14.791111 5.233778-17.635555 0.796444-1.024 10.581333-1.365333 45.511111-1.137778l44.600889 0.341333v9.671111z m-526.449778 29.013334c2.048 0.682667 1.934222 16.952889-0.227555 18.659555-1.024 0.910222-9.216 1.251556-26.965334 1.024l-25.486222-0.341333-0.341333-9.557334c-0.227556-5.233778 0.113778-9.898667 0.796444-10.24 1.137778-0.796444 49.948444-0.341333 52.224 0.455112z m245.987556 0.682666c0 2.389333-11.264 16.497778-14.222222 17.863111-2.161778 1.024-21.162667 1.365333-70.542223 1.365334-59.847111 0-67.697778-0.227556-69.290666-1.820445-1.251556-1.251556-1.820444-3.868444-1.820445-8.760889 0-7.850667 0.682667-9.443556 3.868445-10.012444 1.251556-0.227556 35.953778-0.341333 77.141333-0.113778 54.044444 0.227556 74.865778 0.568889 74.865778 1.479111z m164.636444-0.682666c1.365333 0.910222 2.730667 3.413333 3.185778 5.461333 1.365333 6.712889 1.820444 7.623111 3.982222 7.623111s2.616889-0.910222 3.982223-7.623111c0.341333-1.934222 1.365333-4.209778 2.275555-4.892445 1.592889-1.251556 99.783111-1.820444 101.831111-0.568888 1.251556 0.796444 1.592889 15.246222 0.455111 18.090666-0.568889 1.592889-3.868444 1.820444-25.258666 1.820445-21.162667 0-24.803556-0.227556-26.624-1.934223-1.137778-1.024-2.048-2.503111-2.048-3.413333 0-2.616889-1.934222-1.592889-3.413334 1.934222l-1.365333 3.413334h-48.355556c-31.061333 0-49.038222-0.455111-50.517333-1.137778-1.251556-0.682667-2.161778-2.389333-2.161778-3.982222 0-1.479111-0.568889-3.072-1.137777-3.413334-1.137778-0.682667-1.592889 0.113778-2.730667 5.347556l-0.682667 3.185778h-24.917333c-29.354667 0-28.558222 0.227556-28.558222-10.581334 0-3.868444 0.455111-7.736889 0.910222-8.419555 0.682667-1.137778 12.288-1.479111 49.265778-1.820445 26.510222-0.113778 48.469333-0.341333 48.810666-0.568889 0.341333-0.113778 1.706667 0.568889 3.072 1.479112z m-409.486222 47.331555c0.227556 6.371556-0.113778 8.988444-1.251555 10.012445-1.137778 0.910222-8.874667 1.251556-27.079112 1.024l-25.486222-0.341334-0.341333-10.012444-0.341333-9.898667 27.079111 0.227556 27.079111 0.341333 0.341333 8.647111z m232.903111-7.168c4.323556 3.640889 13.312 16.042667 12.515556 17.180445-0.455111 0.910222-24.462222 1.251556-77.368889 1.251555-74.638222 0-76.8-0.113778-77.937778-2.161778-1.251556-2.503111-1.592889-16.384-0.341333-17.521777 0.341333-0.455111 32.199111-0.796444 70.769778-0.796445 64.512 0.113778 70.314667 0.227556 72.362666 2.048z m128.568889 8.192v9.671111l-25.6 0.341334c-23.096889 0.227556-25.713778 0.113778-26.965333-1.706667-1.592889-2.048-2.048-16.497778-0.682667-17.863111 0.455111-0.341333 12.515556-0.568889 26.965333-0.455111l26.282667 0.341333v9.671111z m98.986667-9.102222c0.910222 1.479111-4.664889 17.180444-6.485334 18.318222-0.796444 0.568889-17.749333 1.024-37.660444 1.024H655.431452l-2.161777-4.892444c-2.503111-5.461333-4.664889-12.288-4.664889-14.222223 0-1.706667 86.016-1.934222 87.04-0.227555z m65.194666 8.760889l-0.341333 10.012444-23.893333 0.341334c-13.084444 0.113778-25.031111 0-26.396445-0.341334-2.389333-0.568889-2.616889-1.251556-2.616889-9.557333 0-4.892444 0.341333-9.216 0.796445-9.557333 0.341333-0.455111 12.401778-0.796444 26.737778-0.796445h26.055111l-0.341334 9.898667z m-526.677333 29.240889c0.796444 1.024 1.251556 4.778667 1.024 10.012444l-0.341333 8.305778-25.941334 0.568889c-14.222222 0.341333-26.396444 0.341333-26.965333 0.227555-1.251556-0.455111-1.592889-18.773333-0.341333-19.911111 0.341333-0.455111 12.060444-0.796444 25.941333-0.796444 20.366222 0 25.6 0.341333 26.624 1.592889z m143.928889-0.910223c1.479111 0.568889 1.820444 2.503111 1.820444 9.557334 0 5.006222-0.568889 9.329778-1.137777 9.671111-0.682667 0.455111-12.743111 0.682667-26.965334 0.568889-19.000889 0-26.055111-0.455111-26.737777-1.479111-0.455111-0.796444-0.910222-4.551111-0.910223-8.419556 0-10.808889-0.682667-10.581333 27.875556-10.581333 13.312 0 25.031111 0.341333 26.055111 0.682666z m111.274667 0.682667c1.024 0.910222 2.389333 4.892444 3.185777 9.443556 1.137778 7.168 1.137778 8.078222-0.682666 9.329777-2.503111 1.820444-51.768889 2.161778-55.182222 0.341334-1.820444-1.024-2.161778-2.503111-2.161778-9.102222 0-11.719111-1.024-11.377778 28.330666-11.377778 18.090667 0 25.144889 0.341333 26.510223 1.365333z m107.292444 8.874667v9.671111h-53.475555l-0.341334-7.623111c-0.568889-12.970667-2.048-12.401778 27.989334-12.060445l25.827555 0.341334v9.671111z m85.788445-9.216c2.616889 1.592889-2.958222 18.204444-6.599112 19.569778-3.640889 1.479111-48.014222 0.113778-49.834666-1.479112-0.796444-0.682667-1.479111-1.934222-1.479111-2.844444 0-1.024-0.910222-4.209778-1.934223-7.054222-3.299556-9.557333-4.437333-9.216 28.899556-9.216 16.156444 0 30.037333 0.455111 30.947556 1.024z m78.392888 9.443555c0.227556 6.371556-0.113778 10.012444-0.910222 10.012445h-50.062222c-2.048 0-2.275556-0.796444-2.275556-9.557334 0-6.599111 0.455111-9.784889 1.479112-10.126222 0.682667-0.341333 12.629333-0.568889 26.396444-0.455111l25.031111 0.227556 0.341333 9.898666z m-490.951111 28.672c1.592889 0.341333 1.934222 1.820444 1.934223 9.557334 0 7.281778-0.341333 9.216-1.820445 9.784889-1.024 0.341333-28.785778 0.682667-61.895111 0.682666-68.380444 0-63.715556 0.682667-63.715556-9.443555 0-7.623111 0.910222-10.808889 3.185778-11.264 2.730667-0.568889 120.035556 0.113778 122.311111 0.682666z m123.107556-0.455111c76.572444 0 97.166222 0.341333 97.621333 1.365334 0.682667 2.048-3.413333 14.563556-5.688889 17.066666-1.706667 1.934222-6.485333 2.048-97.735111 2.048-85.105778 0-96.028444-0.227556-97.621333-1.820444-1.592889-1.592889-1.820444-6.144-0.796445-17.180445 0.113778-1.479111 3.299556-2.616889 5.575112-1.934222 0.910222 0.227556 45.283556 0.455111 98.645333 0.455111z m203.662222 10.24v9.671111l-43.121778 0.341334c-32.540444 0.227556-43.463111-0.113778-44.714666-1.137778-2.048-1.706667-1.706667-17.635556 0.455111-18.887111 0.682667-0.455111 20.593778-0.568889 44.373333-0.227556l43.008 0.568889v9.671111z m74.183111-7.054222c-1.365333 6.826667-2.958222 11.832889-4.664889 14.449778-1.820444 2.730667-2.389333 2.844444-13.539555 2.844444-6.371556 0-12.174222-0.455111-12.970667-0.910222-1.592889-1.024-3.413333-5.347556-5.461333-13.084444-1.251556-5.006222-1.251556-5.575111 0.682666-6.257778 1.024-0.455111 9.784889-0.682667 19.228445-0.455111l17.294222 0.341333-0.568889 3.072z m125.269334-2.616889c0.455111 0.341333 0.910222 4.209778 1.137777 8.419556 0.682667 12.288 3.754667 11.491556-44.714666 11.491555-22.755556 0-42.097778-0.341333-43.121778-0.682666-1.479111-0.568889-1.820444-2.503111-1.820445-9.671112 0-7.964444 0.227556-9.216 2.161778-9.898666 2.730667-0.910222 85.447111-0.682667 86.357334 0.341333z m-525.653334 39.139556c1.024 0.568889 1.365333 3.413333 1.137778 9.898666l-0.341333 8.988445-62.008889 0.341333c-57.230222 0.227556-62.122667 0.113778-63.374222-1.706667-1.820444-2.503111-1.934222-15.36-0.113778-17.180444 1.592889-1.592889 122.197333-1.934222 124.700444-0.341333z m198.997334 0.796444c0.455111 1.479111-12.743111 10.695111-19.456 13.425778-11.832889 4.892444-17.294222 5.233778-90.225778 5.233778-67.697778 0-69.745778-0.113778-70.883556-2.161778-1.592889-3.072-1.479111-15.246222 0.227556-16.952889 1.934222-1.934222 179.655111-1.479111 180.337778 0.455111z m127.203555 8.419556v9.671111l-43.918222 0.341333-44.032 0.227556-0.682667-2.503111c-1.137778-4.551111-0.682667-15.246222 0.682667-16.611556 1.024-1.024 11.946667-1.365333 44.714667-1.137778l43.235555 0.341334v9.671111z m61.667556-8.305778c0.455111 1.024-0.113778 4.323556-1.137778 7.281778-1.024 2.844444-1.934222 6.144-1.934222 7.054222 0 1.024-0.568889 2.161778-1.365334 2.616889-1.592889 1.024-5.461333-3.527111-5.461333-6.599111 0-1.137778-0.796444-3.754667-1.820444-5.575111-2.616889-5.233778-1.479111-6.712889 5.233777-6.712889 4.323556 0 5.916444 0.455111 6.485334 1.934222z m137.784889-0.568889c1.820444 1.820444 1.706667 14.677333 0 17.180444-1.365333 1.820444-5.12 1.934222-44.714667 1.706667l-43.235556-0.341333-0.341333-8.419556c-0.227556-4.664889-0.113778-9.102222 0.227556-10.012444 0.796444-2.048 85.902222-2.275556 88.064-0.113778zM368.256341 617.244444c5.575111 1.024 12.401778 2.616889 15.246223 3.640889 12.401778 4.551111 24.576 16.042667 31.175111 29.468445 4.778667 9.784889 6.712889 17.635556 9.784889 40.277333 1.592889 11.491556 0.910222 60.529778-0.910223 75.093333-2.275556 16.725333-7.623111 33.336889-13.880889 43.121778-10.24 15.815111-25.258667 24.234667-47.104 26.396445-14.222222 1.365333-77.141333 1.251556-80.782222-0.113778l-2.958222-1.137778v-107.178667c0-59.050667 0.455111-107.861333 0.910222-108.544 0.455111-0.682667 1.592889-1.592889 2.503111-1.934222 0.910222-0.341333 18.432-0.682667 38.798223-0.682666 28.558222-0.113778 39.480889 0.341333 47.217777 1.592888z m179.086223 0.910223c13.994667 3.185778 21.048889 6.826667 28.444444 14.563555 15.018667 15.815111 17.976889 48.128 6.144 68.152889-4.437333 7.509333-9.557333 12.515556-16.042667 15.928889-2.730667 1.365333-4.892444 2.730667-4.892444 2.958222 0 0.227556 3.754667 2.275556 8.305778 4.437334 10.012444 5.006222 14.563556 9.329778 19.569777 18.204444 3.754667 6.940444 7.395556 21.731556 7.395556 29.923556-0.113778 7.964444-4.209778 25.827556-7.281778 32.199111-8.647111 17.408-26.737778 28.558222-49.948444 30.606222-17.976889 1.592889-84.195556 1.479111-85.902222-0.227556-2.048-2.048-1.934222-216.064 0.113777-218.112 2.048-2.161778 83.854222-1.024 94.094223 1.365334z m154.510222 2.616889c21.617778 5.916444 33.336889 17.066667 39.480889 37.432888 2.616889 8.647111 2.275556 33.109333-0.455111 43.008-5.12 17.863111-11.036444 26.510222-31.516445 46.193778-30.151111 28.785778-37.091556 35.953778-40.96 42.439111-2.275556 3.640889-3.754667 7.395556-3.413333 8.305778 0.568889 1.479111 6.257778 1.706667 38.456889 1.706667 21.845333 0 38.570667 0.455111 39.594666 1.137778 1.365333 0.796444 1.820444 4.209778 2.048 15.928888 0.341333 12.970667 0.113778 15.246222-1.592889 17.180445-1.820444 2.048-4.323556 2.161778-64.853333 2.161778-38.115556 0-64.056889-0.455111-65.763555-1.137778-2.730667-1.024-2.958222-1.592889-2.958223-8.305778 0-7.281778 2.958222-22.755556 6.030223-31.061333 1.592889-4.437333 7.281778-15.701333 10.24-20.366222 7.168-11.491556 28.785778-34.588444 49.493333-52.792889 10.922667-9.671111 17.976889-20.366222 20.138667-30.492445 2.048-9.557333 2.161778-20.935111 0.341333-28.899555-2.616889-11.491556-12.856889-17.294222-25.031111-13.994667-10.922667 2.844444-15.473778 10.581333-16.725334 28.103111-0.568889 7.964444-1.251556 11.491556-2.389333 12.174222-0.910222 0.682667-10.467556 1.024-21.617778 0.796445l-19.911111-0.227556 0.113778-13.084444c0-7.168 0.682667-15.246222 1.365333-17.863111 5.461333-19.342222 19.000889-32.654222 38.798223-38.001778 10.24-2.730667 41.870222-2.958222 51.086222-0.341333z"
          fill="#2BC1E8" p-id="10097"></path>
    <path d="M326.955008 650.922667c-2.048 2.161778-2.161778 149.504-0.113778 150.755555 0.796444 0.455111 6.257778 0.796444 12.288 0.682667 32.426667-0.682667 38.570667-11.150222 40.504889-68.494222 1.137778-30.492444-2.161778-58.026667-8.078222-69.290667-2.275556-4.437333-8.533333-9.898667-13.653333-12.060444-6.144-2.503111-29.013333-3.754667-30.947556-1.592889zM497.84923 650.922667c-0.341333 0.910222-0.455111 13.653333-0.341333 28.330666l0.341333 26.737778 7.281778 0.341333c10.353778 0.455111 23.665778-2.503111 28.558222-6.485333 7.168-5.688889 8.533333-9.443556 8.533334-22.300444 0-15.473778-3.299556-21.162667-14.222223-25.144889-7.168-2.503111-29.354667-3.640889-30.151111-1.479111zM498.190564 739.100444c-0.568889 0.455111-0.910222 14.791111-0.910223 31.857778 0 23.665778 0.341333 31.061333 1.479111 31.516445 1.934222 0.682667 24.348444-1.024 29.354667-2.389334 13.312-3.527111 19.683556-13.198222 19.569778-30.378666 0-13.994667-4.664889-22.983111-14.563556-28.216889-3.754667-1.934222-7.054222-2.503111-19.342222-2.844445-8.078222-0.227556-15.132444-0.113778-15.587555 0.455111z"
          fill="#2BC1E8" p-id="10098"></path>
</svg>
