<svg t="1763986069731" class="icon" viewBox="0 0 1182 1024" version="1.1" xmlns="http://www.w3.org/2000/svg"
     p-id="11553" width="200" height="200">
    <path d="M778.872296 408.999975q114.206367 0 127.45481 94.541695h-72.141616q-4.550607-41.068912-55.313194-41.031096c-25.652313 0-46.489303 11.72317-46.489302 31.791221 0 69.330576 182.150331 22.072334 182.150331 150.346505 0 47.724647-30.971859 100.214196-128.765788 100.214196q-123.206736 0-137.589679-100.277224h71.10796q13.134993 47.800281 66.481719 47.800281c19.110028 0 56.208189-3.781668 56.208189-38.825123 0-76.553561-181.595687-24.139646-181.595687-150.006155 0-46.350641 28.274269-94.541694 118.492257-94.541694z m-544.295442 4.82793a94.692961 94.692961 0 0 1 70.275992 158.212374 95.386267 95.386267 0 0 1-59.170495 170.17505H78.759536V413.827905h155.86774z m259.535859-16.488072l164.628604 344.850284H587.356035l-93.281139-194.907157-92.550016 194.907157H329.320237l164.830293-344.850284z m685.616368 16.135116v57.796489H1008.98678V684.381023h170.691878v57.796489H939.908316V413.487554h239.808159z m-685.742424 236.90888a43.111013 43.111013 0 1 1-43.111012 43.111013 43.111013 43.111013 0 0 1 43.148829-43.098407z m-268.145456-47.245636h-77.246867v84.558092h75.456878q42.858901-4.764901 42.858901-42.342074 0-36.833444-41.031095-42.203412z m953.837457-55.174532v57.985572H1026.470691v-57.985572h153.245784zM212.391069 465.548514h-63.796735v84.759781h63.796735c28.551592-3.176601 42.758057-17.244405 42.758057-42.417707s-14.168649-39.165473-42.72024-42.329468zM967.94308 4.348918q91.869316 0 139.177979 96.558584l-54.695521 21.429451q-32.169387-58.552823-84.457247-58.552823c-60.758796 0-93.457616 60.97309-93.457617 106.138809s36.001477 105.886698 91.251644 105.886697q55.250166 0 86.688431-65.03208h-63.242091l-13.588793-50.069281h145.392521c0 109.378438-70.351626 174.486151-157.115691 174.486151s-148.972499-82.768102-148.972499-165.32191S876.174608 4.273285 968.031318 4.273285zM150.107001 5.521235v92.398749L343.085508 5.496024v71.725632l-192.978507 92.688677 193.041534 91.730655v72.620627l-193.117167-92.423961 0.063028 92.423961H78.709113V207.58835l-78.696506-37.652806 78.620873-37.816678L78.696508 5.496024h71.385282z m312.428786 0v328.778196h-71.347465V5.533841z m136.001379 0l128.690154 241.598149V5.533841h65.309403v328.778196h-84.343797L575.708498 80.511707v253.80033h-64.641308V5.533841z m545.064382-5.521235a38.623434 38.623434 0 1 1-38.623434 38.623434A38.623434 38.623434 0 0 1 1143.639364 0.012606z m0 6.895241a31.728193 31.728193 0 1 0 31.778615 31.778615A31.728193 31.728193 0 0 0 1143.639364 6.907846z"
          fill="#CA141E" p-id="11554"></path>
    <path d="M1135.861734 59.057045V40.854618h7.790236l8.281852 18.202427h10.487826l-10.487826-18.202427a12.088731 12.088731 0 0 0 8.899525-12.971121c0-6.895241-3.857301-10.828175-11.660142-12.000492h-21.429451v43.17404z m-0.138661-24.341335V20.710934h10.765148a7.109535 7.109535 0 0 1 6.75658 7.563335c0 4.273285-2.281606 6.41623-6.75658 6.41623z"
          fill="#CA141E" p-id="11555"></path>
    <path d="M188.100157 849.942438a359.371889 359.371889 0 0 1-7.66418 40.942856 280.713199 280.713199 0 0 0 29.244897 67.263264 268.813551 268.813551 0 0 0 44.371569 54.960239l-22.437896 9.227269a259.157693 259.157693 0 0 1-34.589654-44.774946 307.348746 307.348746 0 0 1-26.925475-55.010661 243.841938 243.841938 0 0 1-73.011399 100.239407l-21.782406-9.076002a263.456188 263.456188 0 0 0 60.708373-71.397888 241.951104 241.951104 0 0 0 29.396164-92.373538z m200.680503 1.411823l-6.554891 42.15299h72.002955l-2.621957 19.765517h-68.322131a207.865672 207.865672 0 0 0 28.034764 56.876283 269.456434 269.456434 0 0 0 41.749612 44.976635l-21.984095 8.823892a220.950243 220.950243 0 0 1-33.076988-38.119211 211.659945 211.659945 0 0 1-27.026319-50.825615 195.222296 195.222296 0 0 1-31.614742 50.27097 194.30209 194.30209 0 0 1-43.010169 38.3209l-19.765516-9.47938a225.879016 225.879016 0 0 0 52.035748-47.245637 148.241377 148.241377 0 0 0 28.236453-53.64926h-66.809464l2.016889-19.765517h68.372554l6.857424-42.15299z m258.413964 150.258266l-2.319422 18.555383H483.927421l2.01689-18.555383h68.372553l4.840535-47.800281h-57.884728l1.966467-17.950316h57.985572l2.218579-20.975651h-34.287121l1.8152-15.933427-23.950562 28.034764-24.202674-2.823645 57.683039-67.16242a20.168895 20.168895 0 0 1 6.050668-5.445602 14.786321 14.786321 0 0 1 7.66418-1.411822h47.09437a13.185415 13.185415 0 0 1 7.260802 1.512667 18.278061 18.278061 0 0 1 5.848979 5.949824l47.195214 64.540463-24.404362 2.823646-18.757073-26.824631-1.764778 16.740183h-32.925721l-2.218578 20.975651h59.246128l-2.016889 17.950316h-59.246129l-4.840534 47.800281z m-48.909569-132.711328h-41.749613L532.13108 897.54103h85.919492z m-78.860379 125.248837l-7.865869-32.320654h18.908339l8.470936 32.270231z m74.019844 0.201689l14.118226-32.522343h19.362139l-13.31147 32.522343z m211.370017-141.98902a15.693921 15.693921 0 0 1 13.51316 8.067558l43.968191 66.355664-23.950563 2.823645-36.707389-58.086417h-43.211857l-49.81717 56.876284-24.606052-2.823646 56.876284-65.952286a21.618534 21.618534 0 0 1 6.050668-5.546446 15.391388 15.391388 0 0 1 7.66418-1.714356zM809.453383 907.625477a15.920821 15.920821 0 0 1 12.303026 5.042224 17.307433 17.307433 0 0 1 3.781668 13.866115q-1.411823 16.941872-5.042224 38.522589a16.12251 16.12251 0 0 1-5.143068 10.084447 16.525888 16.525888 0 0 1-10.790359 3.227024 32.585371 32.585371 0 0 1-4.235468-0.201689 244.358766 244.358766 0 0 1-38.3209-7.462492l2.420268-17.546938a275.570131 275.570131 0 0 0 31.513898 6.30278h1.008444a4.348918 4.348918 0 0 0 2.92449-0.806756 5.294335 5.294335 0 0 0 1.260556-3.025334 255.50208 255.50208 0 0 0 3.781668-28.992787h-62.42273l-7.462491 71.145777v1.008445a2.218578 2.218578 0 0 0 0.705912 1.916045 5.622079 5.622079 0 0 0 2.924489 0.504222h49.615482a161.590664 161.590664 0 0 0 30.757564-2.722801 96.180417 96.180417 0 0 0 23.950563-7.563335l-3.075757 22.589162a153.485289 153.485289 0 0 1-53.850949 7.260802h-54.203905a19.778122 19.778122 0 0 1-13.866115-4.638846 16.387227 16.387227 0 0 1-5.042223-12.706404 22.185784 22.185784 0 0 1 0.201688-3.428712l9.428959-75.835044a19.362139 19.362139 0 0 1 5.243912-12.101337 16.904055 16.904055 0 0 1 12.403871-4.437157z"
          fill="#262626" p-id="11556"></path>
</svg>
