<svg t="1603170031594" class="icon" viewBox="0 0 1024 1024" version="1.1" xmlns="http://www.w3.org/2000/svg"
     p-id="16074" width="260" height="260">
    <path d="M170.432 0h683.136A170.432 170.432 0 0 1 1024 170.432v683.136A170.432 170.432 0 0 1 853.568 1024H170.432A170.432 170.432 0 0 1 0 853.568V170.432A170.432 170.432 0 0 1 170.432 0z m0 57.024A112.64 112.64 0 0 0 57.024 170.432v683.136a112.64 112.64 0 0 0 113.344 113.344h683.2a112.64 112.64 0 0 0 113.344-113.344V170.432A112.64 112.64 0 0 0 853.568 57.024z"
          fill="#52B451" p-id="16075"></path>
    <path d="M526.592 101.696c-21.952 97.984-244.288 179.84-244.288 419.84A292.544 292.544 0 0 0 471.04 814.08c59.2-46.784 49.728-436.544 55.552-712.384z"
          fill="#52B451" p-id="16076"></path>
    <path d="M533.952 155.072c27.776 55.616 207.744 194.56 207.744 365.696a318.912 318.912 0 0 1-185.024 299.136v80.448c0 14.656-15.36 21.184-24.896 21.184s-27.072-6.4-27.072-17.536v-78.912c78.976-26.304 33.664-497.344 29.248-670.016z"
          fill="#52B451" p-id="16077"></path>
</svg>
