<svg t="1603421393638" class="icon" viewBox="0 0 1024 1024" version="1.1" xmlns="http://www.w3.org/2000/svg" p-id="5541"
     width="260" height="260">
    <path d="M973.005552 175.048868l-414.589425-165.83577C527.19396-3.071033 491.365245-3.071033 460.143078 9.724937L50.160202 175.048868c-10.748615 4.606549-17.402519 13.819648-17.402519 24.568263s7.165743 19.961713 17.914358 24.568262l411.518392 158.670027c30.198489 11.772292 63.97985 11.772292 94.178339 0l416.124941-158.670027c10.748615-4.09471 17.914358-13.819648 17.914358-24.568262 0.511839-10.748615-6.653904-20.473552-17.402519-24.568263z m11.260453 98.273049L593.733004 451.441818c-19.449874 8.70126-32.245844 28.151134-32.245844 49.648364v495.459955c0 9.213098 5.118388 17.914358 13.307808 23.544584 8.189421 5.118388 18.938035 5.118388 27.127457 0.511839l392.580356-208.31839c17.914358-9.724937 29.174811-27.639295 29.174812-48.112847v-465.773305c0-9.213098-4.606549-17.402519-12.79597-23.032746-7.677582-5.118388-17.914358-5.630227-26.615618-2.047355z m-944.854418 0L429.944589 451.441818c19.449874 8.70126 32.245844 28.151134 32.245844 49.648364v495.459955c0 9.213098-5.118388 17.914358-13.307809 23.544584-8.189421 5.118388-18.938035 5.118388-27.127456 0.511839L29.174811 812.28817c-17.914358-9.724937-29.174811-28.151134-29.174811-48.112847v-465.773305c0-9.213098 4.606549-17.402519 12.79597-23.032746 7.677582-5.118388 17.914358-5.630227 26.615617-2.047355z"
          fill="#ff9800" p-id="5542"></path>
</svg>
