<svg t="1603169273068" class="icon" viewBox="0 0 1024 1024" version="1.1" xmlns="http://www.w3.org/2000/svg" p-id="9321"
     width="260" height="260">
    <path d="M0 0h1024v1024H0z" fill="#D8D8D8" fill-opacity="0" p-id="9322"></path>
    <path d="M694.016 192H329.984A329.792 329.792 0 0 0 0 521.6a329.792 329.792 0 0 0 329.984 329.6h364.032A329.792 329.792 0 0 0 1024 521.6 329.792 329.792 0 0 0 694.016 192z m140.608 471.296a198.08 198.08 0 0 1-140.16 58.048H330.624a198.848 198.848 0 0 1-199.04-198.272v-1.856a198.784 198.784 0 0 1 199.04-198.208h363.712a198.08 198.08 0 0 1 198.208 198.208v1.856c0 52.544-20.8 103.04-57.984 140.16z"
          fill="#DE4231" p-id="9323"></path>
</svg>
