<svg t="1763986938972" class="icon" viewBox="0 0 1024 1024" version="1.1" xmlns="http://www.w3.org/2000/svg"
     p-id="31577" width="200" height="200">
    <path d="M497.877333 128C725.973333 128 895.594667 299.84 896 510.933333c0 211.904-173.738667 383.338667-397.717333 383.338667h-78.528c18.688-58.090667 43.2-122.56 73.130666-177.045333 74.389333-134.997333 230.656-245.952 230.656-245.952l8.32-47.658667 4.992-3.2a40 40 0 0 0 18.688-36.053333c-2.090667-28.053333-14.549333-65.28-19.946666-67.690667-16.64-8.021333-94.762667 12.010667-94.762667 12.010667l-59.413333-38.058667a45.994667 45.994667 0 0 0-32.426667-6.4l-44.053333 16.810667h-90.602667c-21.610667 1.194667-66.496 15.637333-83.114667 29.248l-37.546666 22.805333c-9.002667-8.896-18.325333-17.429333-30.058667-22.336-23.68-9.6-51.541333-4.821333-70.229333 11.605333a63.274667 63.274667 0 0 0-20.373334 58.88c1.493333 7.509333 4.650667 13.781333 8.384 19.669334L128 453.248V128h369.877333z m231.893334 203.584l8.746666 20.842667a17.834667 17.834667 0 0 1-5.824 20.821333l-30.357333 23.253333-51.52-6.037333a22.272 22.272 0 0 1-19.114667-14.805333l-5.397333-16.042667c-1.685333-4.394667 0.810667-9.194667 5.802667-10.410667l88.106666-22.4a8.746667 8.746667 0 0 1 9.557334 4.778667z m-243.52 15.232l18.282666 21.632-89.365333 8 47.36-32.426667a17.92 17.92 0 0 1 23.722667 2.773334z m120.64-30.293333l1.109333 0.256 32.426667 12.416-32.853334 8-5.397333-15.210667c-0.96-2.496 1.088-4.992 3.626667-5.418667l1.066666-0.042666z"
          fill="#2B85FB" p-id="31578"></path>
</svg>
