<svg t="1603178106342" class="icon" viewBox="0 0 1024 1024" version="1.1" xmlns="http://www.w3.org/2000/svg"
     p-id="66748" width="260" height="260">
    <path d="M447.966 582.7c2.566-10.458 6.678-21.474 11.1-33.334l1.746-4.686c2.252-6.068 4.882-11.924 7.678-18.124 13.568-30.096 30.424-67.554 10.968-157.43-3.732-17.35-12.778-27.446-27.578-30.834-32.48-7.452-78.032 16.956-87.868 25.654 0.082 1.972 0.248 4.47 0.412 7.318 1.202 20.328 3.454 58.184-2.63 101.664-4.34 31.048 5.148 61.324 26.016 83.116 16.412 17.116 38.004 26.59 60.156 26.656z m-22.974-224.344c0.692-5.18 6.94-8.288 16.692-8.288 2.154 0 4.376 0.164 6.644 0.476 10.494 1.462 21.346 6.432 20.328 13.914-0.806 5.654-9.77 14.06-20.524 14.06-0.938 0-1.892-0.082-2.83-0.216-6.216-0.854-12.5-4.768-16.824-10.472-1.514-2.026-3.98-5.94-3.486-9.474z"
          fill="#008CDB" p-id="66749"></path>
    <path d="M407.658 167.904c-40.998-13.37-143.006-39.7-205.07 4.292-38.138 27.052-55.636 77.358-52.018 149.568 1.134 22.824 15.59 104.244 40.292 185.206 28.566 93.572 60.962 152.578 88.87 161.886 4.276 1.43 17.318 5.772 36.18-16.906 26.674-32.068 51.72-59.368 63.232-71.718a117.23 117.23 0 0 1-8.354-7.894c-25.884-27-37.692-64.448-32.332-102.68 5.74-41.148 3.602-77.476 2.45-96.994-0.33-5.346-0.558-9.21-0.542-11.958-0.166-7.122-1.76-123.176 65.5-191.092 0.576-0.59 1.202-1.136 1.792-1.71z"
          fill="#008CDB" p-id="66750"></path>
    <path d="M746.724 587.042c-1.71-2.436-3.948-5.248-6.282-8.14-7.532-9.44-17.876-22.366-25.852-41.72-1.234-2.96-5.114-9.916-9.622-17.992-24.536-43.99-75.564-135.526-42.576-182.688 15.146-21.678 45.076-30.36 89.066-25.884-5.854-17.384-20.508-49.6-47.576-81.586-31.396-37.118-87.06-81.648-173.858-83.082-44.106-0.706-80.204 12.794-107.338 40.178-43.12 43.48-54.648 112.204-57.69 148.976a181.628 181.628 0 0 1 6.496-3.454c10.936-5.542 32.858-15.212 56.802-17.68 39.962-4.162 66.324 13.682 74.2 50.172 21.084 97.458 1.678 140.592-12.514 172.084-2.63 5.84-5.098 11.348-7.072 16.66l-1.758 4.718c-4.178 11.214-8.042 21.558-10.278 30.72a30.166 30.166 0 0 1 7.564-0.97c6.922 0 12.582 2.332 16.296 3.88 11.908 4.932 21.856 16.856 25.902 31.08a48.348 48.348 0 0 1 1.464 6.908c0.362 1.184 0.558 2.452 0.508 3.748-2.73 97.832 1.136 186.44 8.98 206.092 12.168 30.44 30.636 57.062 82.834 45.88 50.338-10.788 68.214-28.91 76.602-77.554 6.38-36.836 18.878-141.082 20.622-163.284-2.168-44.332 21.76-53.214 35.08-57.062z"
          fill="#008CDB" p-id="66751"></path>
    <path d="M774.138 647.806c21.642-1.036 44.436-5.772 58.07-12.088 15.834-7.368 27.018-15.554 33.546-21.674a6.86 6.86 0 0 1-0.526 0.116c-48.416 9.998-82.718 8.634-101.944-4.062a41.98 41.98 0 0 1-3.29-2.418c-1.628 0.576-3.29 1.038-5 1.514-10.888 3.058-21.166 5.954-19.834 33.598 2.882 2.334 15.034 6.116 38.978 5.014z m-76.452-510.784c-26.922-0.576-50.98 2.81-68.576 6.46 40.898 18.042 70.844 44.782 91.386 68.692 37.528 43.696 55.946 91.994 57.476 108.112 0.214 2.484 0.05 4.57-0.394 6.332 0.592 16.822-1.562 31.098-3.684 44.894-1.726 11.184-3.52 22.76-3.948 36.262-0.412 12.746 1.216 26.28 2.944 40.636 4.21 34.976 8.914 74.414-15.21 114.294 0.394 0.492 0.772 0.986 1.184 1.478 0.97 1.216 1.924 2.4 2.828 3.568 93.424-147.02 125.69-317.424 96.386-354.872-38.222-48.822-92.178-74.344-160.392-75.856z m-274.552 544.4c30.736 0 55.42-12.746 73.344-37.842 3.586-4.982 2.466-11.396 1.53-14.784-2.056-7.138-7.122-13.634-12.302-15.788-2.828-1.186-5.18-2.09-7.268-2.09-2.96 0-6.446 2.22-10.36 6.612-5.18 5.788-8.93 10.526-12.218 14.718-14.388 18.254-20.966 24.454-63.626 33.236-8.816 1.824-13.88 3.65-16.742 5 3.404 2.318 9.242 5.128 15.72 6.756 11.068 2.766 21.808 4.182 31.922 4.182z"
          fill="#008CDB" p-id="66752"></path>
    <path d="M750.606 367.912c1.694-11.038 3.306-21.624 3.488-33.302-46.54-5.774-65.076 4.964-72.392 15.39-24.52 35.08 23.386 121.022 43.86 157.71 5.262 9.422 9.044 16.248 10.806 20.49a120.334 120.334 0 0 0 6.216 12.81c14.092-29.946 10.442-60.302 6.908-89.792-1.744-14.586-3.57-29.684-3.092-44.206 0.456-14.912 2.348-27.214 4.206-39.1z m-23.45-6.824c-2.27 2.382-7.056 6.526-13.552 7.432a18.794 18.794 0 0 1-2.548 0.164c-9.62 0-17.908-7.5-18.584-12.352-0.804-5.87 8.782-10.326 18.65-11.708a46.582 46.582 0 0 1 6.364-0.446c8.534 0 14.192 2.532 14.736 6.612 0.376 2.632-1.612 6.662-5.066 10.298z"
          fill="#008CDB" p-id="66753"></path>
    <path d="M918.182 595.378c-4.9-14.866-17.762-25.224-34.386-27.708-7.846-1.168-16.824-0.674-27.448 1.514-18.516 3.83-32.28 5.28-42.28 5.556 37.84-63.904 68.624-136.79 86.336-205.398 28.648-110.924 13.336-161.458-4.554-184.318-47.364-60.5-116.432-92.998-199.76-94-44.466-0.542-83.508 8.238-103.85 14.554-18.978-3.356-39.352-5.212-60.75-5.558-40.044-0.658-75.5 8.09-105.758 26.066-16.774-5.674-43.662-13.65-74.726-18.766-73.032-11.988-131.906-2.646-174.976 27.776-52.15 36.838-76.324 100.826-71.85 190.222 1.416 28.37 17.284 114.704 42.28 196.602 14.374 47.064 29.684 86.156 45.538 116.168 22.464 42.594 46.506 67.656 73.51 76.668 15.128 5.032 42.624 8.566 71.52-15.526 3.684 4.44 8.568 8.864 15.064 12.958 8.222 5.2 18.304 9.444 28.368 11.958 36.262 9.08 70.238 6.808 99.23-5.902 0.166 5.146 0.314 10.08 0.428 14.324 0.182 6.908 0.378 13.664 0.642 19.98 1.71 42.79 4.622 76.042 13.238 99.294 0.478 1.284 1.12 3.24 1.794 5.296 4.292 13.172 11.478 35.222 29.782 52.49C544.518 927.504 567.444 933 588.428 933c10.526 0 20.59-1.382 29.388-3.256 31.41-6.742 67.062-17.008 92.866-53.744 24.388-34.716 36.246-87.028 38.4-169.452 0.28-2.336 0.542-4.556 0.79-6.678 0.166-1.428 0.33-2.894 0.494-4.358l5.74 0.51 1.496 0.1c31.97 1.462 71.11-5.328 95.12-16.478 18.952-8.814 79.784-40.916 65.46-84.266z m-76.058 61.72c-19.042 8.832-49.416 14.424-75.73 14.424-12.646 0-24.324-1.284-33.384-4.112-4.292 39.502-13.436 113.124-18.748 143.994-9.95 57.706-35.686 83.886-94.888 96.58-10.098 2.172-19.274 3.142-27.594 3.142-56.752 0-74.712-44.928-82.062-63.314-8.978-22.448-12.104-96.138-11.46-170.914-20.392 18.434-45.932 28.088-75.122 28.088-12.038 0-24.7-1.644-37.644-4.884-3.734-0.936-36.556-9.75-36.112-30.718 0.394-19.208 27.792-24.85 38.12-26.968 36.244-7.468 38.58-10.444 49.844-24.752 2.286-2.894 4.968-6.296 8.24-10.18-0.034-0.41-0.1-0.822-0.116-1.248-16.28-0.43-32.15-4.77-46.622-12.532-9.786 10.426-36.344 39.09-64.794 73.328-17.134 20.57-33.596 26.624-47.016 26.624-5.494 0-10.442-1.002-14.752-2.436-36.802-12.284-71.766-71.948-103.966-177.376-24.436-80.086-39.912-163.71-41.278-190.91-4.044-80.796 16.808-137.992 61.966-169.996 37.856-26.82 90.892-34.96 157.642-24.206 38.614 6.216 70.156 17.052 82.39 21.61 28.106-19.176 62.064-28.566 101.384-27.958 21.444 0.362 41.112 3.108 59.17 7.598 8.568-3.75 52.79-17.086 105.132-16.578 76.142 0.822 139.044 30.196 181.918 84.958 10.624 13.584 15.788 35.816 15.308 66.094-0.426 27.562-5.606 61.388-15.03 97.814-19.848 76.88-56.67 159.304-101.45 227.488 6.792 4.982 27.414 13.22 84.988 1.328 19.39-4.012 31.066-0.474 34.7 10.494 6.99 21.182-31.624 45.568-53.034 55.518z"
          fill="#008CDB" p-id="66754"></path>
</svg>
