<svg t="1763986335740" class="icon" viewBox="0 0 1024 1024" version="1.1" xmlns="http://www.w3.org/2000/svg"
     p-id="21475" width="200" height="200">
    <path d="M569.173333 544.426667V358.4h-114.346666v186.026667l-160.853334 93.013333 57.173334 98.986667L512 643.413333l160.853333 93.013334 57.173334-98.986667-160.853334-93.013333z"
          fill="#669DF6" p-id="21476"></path>
    <path d="M569.173333 544.426667V358.4H512v218.453333L322.56 686.933333l28.586667 49.493334L512 643.413333l160.853333 93.013334 57.173334-98.986667-160.853334-93.013333z"
          fill="#4285F4" p-id="21477"></path>
    <path d="M454.4 118.186667L367.786667 170.24v159.146667L512 407.466667V274.773333l-57.6-26.453333V118.186667z"
          fill="#AECBFA" p-id="21478"></path>
    <path d="M569.6 248.32L512 274.773333v132.693334l144.213333-78.08V170.24l-86.613333-52.053333v130.133333zM773.973333 728.746667l-3.413333 59.306666 115.2 65.28-93.013333 51.2-138.24-79.786666 4.693333-163.413334 139.52-85.333333L938.666667 656.213333v106.24l-114.773334-66.133333zM250.026667 728.746667l-49.92-32.426667L85.333333 762.453333v-106.24l137.813334-79.786666 139.52 85.333333 4.693333 163.413333-136.106667 80.64L138.24 853.333333l115.2-66.56z"
          fill="#669DF6" p-id="21479"></path>
    <path d="M938.666667 762.453333l-2.133334-106.24-137.813333-79.36-139.52 85.76 114.773333 66.133334 49.493334-32.426667 115.2 66.133333zM85.333333 762.453333l115.2-66.133333 49.493334 32.426667 114.773333-66.133334-139.52-85.76-137.813333 79.36L85.333333 762.453333z"
          fill="#AECBFA" p-id="21480"></path>
</svg>
