<svg t="1607706906834" class="icon" viewBox="0 0 1024 1024" version="1.1" xmlns="http://www.w3.org/2000/svg" p-id="3253"
     width="200" height="200">
    <path d="M525.298701 978.161309H44.670367V0.028848h786.743668v505.942023c-150.223399-53.94484-315.721554 24.102093-369.666394 174.311068a288.994338 288.994338 0 0 0 36.737301 265.541314c-17.885455-9.332169-39.521086-21.347156-65.714623-36.852692-101.067245-63.709722-138.179564-95.586219-207.370313-201.932558S156.266952 451.867369 172.176353 361.488126 284.104685 138.323802 422.240978 106.447305s218.00062 37.256557 255.170634 85.10015 26.496436 132.929318 5.293518 159.52672-42.550075 37.170014-42.550075 37.170015-42.550075 15.86613-74.469842 5.250246-31.89092-31.876497-26.582979-42.550075 15.952672-15.86613 15.952672-15.866129h26.453165v-53.281348s-58.473899-15.967096-85.100149 47.800321 21.202919 106.303068 42.550074 111.596586 47.843592 15.967096 101.067246 0 95.586219-74.296757 106.259796-143.473082-26.467589-185.979886-132.914894-228.52996S384.840184 37.256557 278.493845 116.976646c-127.52041 100.966279-175.306308 201.932558-170.070485 366.76722 0 106.303068 31.876497 233.953292 132.943741 340.256359s196.653464 154.161084 196.653464 154.161084z m208.524214 44.511706a244.540327 244.540327 0 1 1 244.540327-244.598023 244.540327 244.540327 0 0 1-244.540327 244.598023z m0-44.454011a200.071893 200.071893 0 1 0-200.086318-200.144012 200.086317 200.086317 0 0 0 200.086318 200.086317z m-22.227005-46.026199A155.603459 155.603459 0 0 1 585.561146 730.80835l126.092459 65.267487z m-106.620391-241.395949a155.632307 155.632307 0 0 1 258.315013 0.937544l-129.381075 65.801166-128.933938-66.695439z m277.484182 41.078852a155.617883 155.617883 0 0 1-126.409781 200.259402v-135.915035z m0 0"
          fill="#088AFF" p-id="3254"></path>
</svg>
