<svg t="1607706019735" class="icon" viewBox="0 0 1024 1024" version="1.1" xmlns="http://www.w3.org/2000/svg" p-id="4359"
     width="200" height="200">
    <path d="M141.211 512.01c0-10.234 3.61-18.955 10.818-26.212 7.20799999-7.253 15.968-10.867 26.266-10.867L756.187 474.931l-196.44-196.162c-7.005-7.1-10.614-15.904-10.61399999-26.34 0-10.62000001 3.505-19.435 10.50999999-26.515 7.105-7.045 15.97-10.545 26.574-10.545 10.407 0 19.162 3.545 26.375 10.694L872.075 485.62c7.213 7.148 10.714 15.93400001 10.714 26.37 0 10.45599999-3.5 19.242-10.714 26.37l-259.483 259.553c-7.213 7.139-15.968 10.718-26.375 10.718-10.61 0-19.469-3.525-26.573-10.57-7.006-7.055-10.516-15.89-10.516-26.509 0-10.422 3.61-19.21699999 10.615-26.366L756.182 549.074l-577.887 0c-10.303 0-19.05800001-3.61-26.266-10.88599999-7.214-7.24300001-10.81799999-15.989-10.818-26.21800001l0 0.04z"
          p-id="4360" fill="#6c63ff"></path>
</svg>
